<?xml version="1.0" encoding="UTF-8"?>
<svg version="1.1" xmlns="http://www.w3.org/2000/svg" width="826" height="250">
<path d="M0 0 C6.76228544 5.00948446 11.78060991 10.74470728 16 18 C16.3403125 17.43152344 16.680625 16.86304687 17.03125 16.27734375 C23.41395029 6.10915897 30.6972031 0.76759897 42 -3 C54.70006283 -3.83481016 65.96102982 -3.17508103 76.21875 5.25390625 C84.0776912 12.95773677 86.97326282 22.76240501 87.3742218 33.60562134 C87.38871713 35.54643442 87.38741686 37.4874142 87.37231445 39.42822266 C87.37596512 40.49965515 87.37961578 41.57108765 87.38337708 42.67498779 C87.39140073 46.17151359 87.37794991 49.66756424 87.36328125 53.1640625 C87.36276204 55.60834757 87.36328209 58.05263306 87.36479187 60.49691772 C87.36470254 65.59550281 87.35434598 70.69392847 87.33618164 75.79248047 C87.31337514 82.33866278 87.31297627 88.88461497 87.31969929 95.43082619 C87.32303187 100.46640077 87.31642462 105.50192246 87.30657005 110.53748703 C87.30271451 112.95291238 87.3015713 115.3683436 87.3031559 117.78377151 C87.30352493 121.14453739 87.29095601 124.50500189 87.2746582 127.86572266 C87.27713562 128.8682608 87.27961304 129.87079895 87.28216553 130.90371704 C87.27508072 131.8146814 87.26799591 132.72564575 87.26069641 133.66421509 C87.25761711 134.85483771 87.25761711 134.85483771 87.25447559 136.06951332 C87 138 87 138 85 140 C80.43898002 140.39987122 75.86371761 140.32902392 71.28710938 140.31567383 C69.0086291 140.31251197 66.73144479 140.33597517 64.453125 140.36132812 C63.01041831 140.36360088 61.56770812 140.36430473 60.125 140.36328125 C58.14886719 140.36775269 58.14886719 140.36775269 56.1328125 140.37231445 C55.09898437 140.24945068 54.06515625 140.12658691 53 140 C50.36446588 136.04669882 50.72275692 132.65310237 50.74462891 128.06567383 C50.73919823 126.69440842 50.73919823 126.69440842 50.73365784 125.29544067 C50.72675965 123.30821036 50.72425919 121.32096108 50.72560501 119.33371925 C50.72656928 116.18488877 50.71363829 113.03640058 50.69662476 109.88761902 C50.6503314 100.93413986 50.62575833 91.98069427 50.61914062 83.02709961 C50.61411702 77.55107227 50.58981955 72.07539999 50.55381393 66.59949303 C50.54403168 64.51560285 50.54167537 62.43166371 50.54698563 60.34775734 C50.55408099 57.42522088 50.53672139 54.50373604 50.51416016 51.58129883 C50.52233261 50.72645401 50.53050507 49.87160919 50.53892517 48.99085999 C50.46029445 43.24108255 49.25997059 38.79954439 46 34 C42.6831952 31.59344614 38.91949039 30.90942514 34.84765625 31.1015625 C30.08697142 32.03359677 25.98831382 34.09409005 23 38 C18.33373541 47.12085983 19.55911113 58.41050879 19.55859375 68.33984375 C19.54680893 70.31377639 19.53344201 72.28770015 19.51856995 74.26161194 C19.48254789 79.43066749 19.46222488 84.59964427 19.44702148 89.76879883 C19.42208912 98.06616298 19.38262113 106.36335343 19.32512093 114.66055489 C19.30878397 117.55612893 19.30501494 120.45153825 19.30210876 123.34715271 C19.29233714 125.1141692 19.28207464 126.88118307 19.27124023 128.64819336 C19.27379318 129.45391281 19.27634613 130.25963226 19.27897644 131.08976746 C19.24354618 134.92198348 19.17695864 136.73456204 17 140 C13.8671875 140.37231445 13.8671875 140.37231445 9.875 140.36328125 C9.1722998 140.36377975 8.46959961 140.36427826 7.74560547 140.36479187 C6.25941135 140.36245061 4.77321333 140.35271888 3.28710938 140.33618164 C1.00875495 140.31259065 -1.26842953 140.31561934 -3.546875 140.32226562 C-14.72092744 140.27907256 -14.72092744 140.27907256 -17 138 C-17.20210053 135.16125588 -17.27999729 132.41836492 -17.27124023 129.578125 C-17.27646698 128.70632095 -17.28169373 127.83451691 -17.28707886 126.93629456 C-17.29733899 125.03800258 -17.30310275 123.13968232 -17.30496025 121.24136353 C-17.30861722 118.23068089 -17.3253291 115.22032969 -17.34571838 112.2097168 C-17.4011702 103.64784942 -17.43170885 95.08593135 -17.45629883 86.52392578 C-17.47224092 81.28898618 -17.50253951 76.05427748 -17.54106331 70.81945801 C-17.55266567 68.82933011 -17.55864324 66.83916074 -17.55874443 64.84899902 C-17.13985835 48.62179086 -17.13985835 48.62179086 -23.125 33.9375 C-27.0423286 31.29756116 -30.31236571 30.72662167 -35 31 C-40.20623265 32.53626537 -43.15237791 34.35943068 -46 39 C-50.35651683 50.00593726 -49.15749017 63.26098903 -49.22979546 74.94383812 C-49.24645875 77.53727591 -49.26969007 80.13058314 -49.29469299 82.72395325 C-49.36486278 90.08616495 -49.42598538 97.44842011 -49.47680664 104.81079102 C-49.50851549 109.33865211 -49.54973314 113.86634364 -49.59700203 118.39406776 C-49.61302731 120.11448466 -49.62534645 121.83494017 -49.63390923 123.55541039 C-49.64600511 125.94621604 -49.67011845 128.33661679 -49.69702148 130.72729492 C-49.69761063 131.43838913 -49.69819977 132.14948334 -49.69880676 132.88212585 C-49.77206629 137.77206629 -49.77206629 137.77206629 -52 140 C-55.04101562 140.25878906 -55.04101562 140.25878906 -58.90625 140.265625 C-59.92700623 140.26849518 -59.92700623 140.26849518 -60.96838379 140.27142334 C-62.40747446 140.27278463 -63.84657744 140.26909205 -65.28564453 140.26074219 C-67.49149087 140.25004128 -69.69652281 140.26063872 -71.90234375 140.2734375 C-73.29948097 140.27211589 -74.69661768 140.26955348 -76.09375 140.265625 C-77.36927734 140.26336914 -78.64480469 140.26111328 -79.95898438 140.25878906 C-83 140 -83 140 -85 138 C-85.24888897 135.63552856 -85.24888897 135.63552856 -85.24723816 132.60986328 C-85.25143265 131.46567932 -85.25562714 130.32149536 -85.25994873 129.14263916 C-85.25432922 127.88127136 -85.24870972 126.61990356 -85.24291992 125.3203125 C-85.24399243 123.98337715 -85.24593066 122.64644225 -85.24867249 121.30950928 C-85.25352894 117.67320005 -85.24585522 114.03701313 -85.23571944 110.40071869 C-85.22695165 106.60064324 -85.22869614 102.80057178 -85.2290802 99.00048828 C-85.22814296 92.61814318 -85.21945103 86.23584555 -85.20581055 79.85351562 C-85.19008439 72.46788144 -85.18481241 65.08229927 -85.1855461 57.69664955 C-85.18615589 50.60063579 -85.18105492 43.50463903 -85.17275429 36.40863037 C-85.169218 33.38474393 -85.16739054 30.36086351 -85.16686058 27.3369751 C-85.16585799 23.77803892 -85.15976828 20.21914662 -85.14969444 16.66022491 C-85.14536715 14.72594146 -85.14594201 12.79164901 -85.14663696 10.85736084 C-85.14237198 9.71317688 -85.13810699 8.56899292 -85.13371277 7.39013672 C-85.13203692 6.39166718 -85.13036108 5.39319763 -85.12863445 4.36447144 C-85 2 -85 2 -84 0 C-78.85835643 -1.71388119 -73.44479988 -1.22681292 -68.0625 -1.25 C-66.86947266 -1.270625 -65.67644531 -1.29125 -64.44726562 -1.3125 C-63.30064453 -1.31765625 -62.15402344 -1.3228125 -60.97265625 -1.328125 C-59.39883179 -1.34214355 -59.39883179 -1.34214355 -57.79321289 -1.35644531 C-54.60019274 -0.94898011 -53.23958569 -0.29082126 -51 2 C-50.54218098 4.68528464 -50.30527696 6.99651714 -50.25 9.6875 C-50.22035156 10.38939453 -50.19070312 11.09128906 -50.16015625 11.81445312 C-50.08962967 13.54235424 -50.04252932 15.2711832 -50 17 C-49.67128906 16.35933594 -49.34257812 15.71867187 -49.00390625 15.05859375 C-44.66940141 7.17660799 -39.41200018 1.57699137 -31 -1.9375 C-21.94227971 -4.50491719 -8.2444099 -4.9560861 0 0 Z " fill="#FFFFFF" transform="translate(226,5)"/>
<path d="M0 0 C8.21640094 7.6188445 11.3800304 18.0689771 11.81880188 29.03010559 C11.82228134 30.15688217 11.8257608 31.28365875 11.8293457 32.44458008 C11.83989738 34.37742607 11.83989738 34.37742607 11.85066223 36.34931946 C11.85247812 37.0284823 11.85429401 37.70764515 11.85616493 38.40738869 C11.86340853 40.55730684 11.87913199 42.70700687 11.89750671 44.8568573 C11.94961004 50.96516949 11.99790374 57.07335504 12.01342773 63.18188477 C12.02357614 66.93144688 12.05306436 70.68044625 12.09474754 74.42978477 C12.10695787 75.84772145 12.11219726 77.26573789 12.10994911 78.68372536 C12.09551224 90.75958736 14.2079863 99.08757675 21.61328125 108.64453125 C22.6875 110.75 22.6875 110.75 22.6640625 113.2109375 C20.56965931 118.65638578 15.03553498 122.07474281 10.6875 125.75 C9.78257812 126.55050781 8.87765625 127.35101563 7.9453125 128.17578125 C7.09710938 128.90152344 6.24890625 129.62726563 5.375 130.375 C4.61574219 131.02726563 3.85648437 131.67953125 3.07421875 132.3515625 C0.01426621 134.14446431 -1.8172461 134.21695852 -5.3125 133.75 C-11.61273625 130.08761967 -16.1045308 123.54910756 -20.3125 117.75 C-20.89515625 118.33007812 -21.4778125 118.91015625 -22.078125 119.5078125 C-35.05076125 131.86853195 -48.19943905 135.43324192 -65.6328125 135.0625 C-75.02864123 134.60877789 -83.61373876 131.47763522 -90.3125 124.75 C-100.17280372 113.25956542 -101.30796376 101.71227389 -100.51513672 87.07177734 C-99.55514116 76.07231018 -93.85964866 66.81328522 -85.8046875 59.4609375 C-69.49704301 46.76664864 -45.61772156 43.40629182 -25.3125 43.75 C-25.56951628 32.32406061 -25.56951628 32.32406061 -29.3125 21.75 C-33.06152178 18.51350272 -37.37915396 16.94733384 -42.3125 16.75 C-48.12741862 17.43225579 -52.79989002 18.86705653 -57.3125 22.75 C-59.5119344 25.79872095 -61.05198226 29.01729387 -62.3125 32.5625 C-63.3125 34.75 -63.3125 34.75 -65.00170898 35.90893555 C-69.85652436 37.67595498 -75.35381965 36.17827955 -80.375 35.5625 C-81.57189453 35.43552734 -82.76878906 35.30855469 -84.00195312 35.17773438 C-85.14728516 35.04302734 -86.29261719 34.90832031 -87.47265625 34.76953125 C-88.52074463 34.64682861 -89.56883301 34.52412598 -90.64868164 34.39770508 C-93.53720013 33.69536436 -94.64607356 33.19179 -96.3125 30.75 C-96.6180089 21.43197861 -92.00388885 12.56253381 -86.421875 5.28515625 C-65.82789523 -16.52269631 -23.23244122 -18.75965347 0 0 Z M-57.7890625 74.84375 C-62.72623739 81.02154833 -63.13879475 88.07234464 -62.3125 95.75 C-61.0607495 101.30985846 -58.07832333 104.69267937 -53.3125 107.75 C-48.42165749 109.3904068 -43.96442095 108.99105998 -39.26171875 106.94921875 C-32.66467215 102.89051473 -28.62517292 95.98642815 -26.3125 88.75 C-25.21664721 83.76494415 -25.19410707 78.94835871 -25.25 73.875 C-25.25451172 73.09125 -25.25902344 72.3075 -25.26367188 71.5 C-25.27535907 69.58329986 -25.29329092 67.66663952 -25.3125 65.75 C-37.14557666 65.05279745 -48.98873985 66.08055952 -57.7890625 74.84375 Z " fill="#FFFFFF" transform="translate(435.3125,12.25)"/>
<path d="M0 0 C7.75639492 7.02796827 11.52653516 14.71027013 13 25 C13.09578958 27.1975162 13.14509339 29.3973571 13.15771484 31.59692383 C13.16797699 32.88879105 13.17823914 34.18065826 13.18881226 35.51167297 C13.19225018 36.19495478 13.1956881 36.87823658 13.19923019 37.58222389 C13.21112016 39.74018299 13.23059772 41.89795087 13.25234985 44.05583191 C13.31362757 50.18795315 13.36791012 56.3200511 13.40136719 62.45239258 C13.42243192 66.21369008 13.45782355 69.97463111 13.50212479 73.7357235 C13.51618657 75.16006945 13.52498478 76.58447837 13.52817917 78.00889015 C13.55913757 90.49146154 15.38743207 98.24431374 22.57421875 108.421875 C24.17655434 111.31924895 24.55953235 112.74837805 24 116 C18.51728655 123.72921209 8.43325714 131.76950094 0 136 C-6.85782017 134.447286 -10.97792874 129.56617678 -15 124 C-16.23046875 121.2109375 -16.23046875 121.2109375 -17 119 C-17.52207031 119.42410156 -18.04414062 119.84820312 -18.58203125 120.28515625 C-34.8697186 133.2639614 -48.18633146 137.8206704 -69 136 C-78.80075451 134.18921341 -86.5104627 129.83021249 -92.3125 121.6875 C-99.39917057 110.26794662 -100.78065935 96.66662807 -97.75 83.6875 C-94.32759148 71.70907019 -87.41952886 61.902609 -76.609375 55.3046875 C-60.40765567 47.20382784 -41.8293082 45.71317233 -24 45 C-24.08759258 42.45679484 -24.19453413 39.91683067 -24.3125 37.375 C-24.33505859 36.66214844 -24.35761719 35.94929688 -24.38085938 35.21484375 C-24.61943816 30.48664593 -25.4447494 27.11168622 -28 23 C-32.18885338 19.47755512 -35.54065702 18.18506247 -41 18 C-46.79342716 18.658344 -51.5555839 20.07237647 -56 24 C-57.58164278 26.56613472 -58.78657244 29.24519148 -60 32 C-62.5862069 36.86206897 -62.5862069 36.86206897 -66 38 C-70.35302386 37.84017232 -74.67202791 37.2931278 -79 36.8125 C-80.20140625 36.69841797 -81.4028125 36.58433594 -82.640625 36.46679688 C-83.79046875 36.33982422 -84.9403125 36.21285156 -86.125 36.08203125 C-87.70667969 35.91537964 -87.70667969 35.91537964 -89.3203125 35.74536133 C-92 35 -92 35 -93.86523438 33.0715332 C-95.70764091 29.70818994 -94.72628351 27.29910393 -93.84765625 23.7109375 C-90.1464288 11.8738322 -82.60329277 2.20132971 -71.64453125 -3.7578125 C-50.47547318 -13.7013287 -19.17044455 -15.18082822 0 0 Z M-56 76 C-60.07502831 81.85855871 -61.46440523 87.91782031 -61 95 C-60.01384462 99.87227618 -58.67360561 103.23016502 -55.375 107 C-51.11216621 109.52612373 -47.94819044 110.50832133 -43 110 C-36.18327448 108.02592564 -32.00006999 104.62100667 -28.25390625 98.671875 C-24.72223824 91.14645157 -23.57499587 84.73796482 -23.8125 76.4375 C-23.82603516 75.52419922 -23.83957031 74.61089844 -23.85351562 73.66992188 C-23.88844685 71.44596741 -23.93748414 69.22332048 -24 67 C-35.76573598 66.44559359 -47.00772905 67.64335735 -56 76 Z " fill="#FFFFFF" transform="translate(99,11)"/>
<path d="M0 0 C8.60202981 5.9307895 12.30420021 13.30157958 14.35588074 23.36811829 C16.22870182 34.88697179 16.11003665 46.35870784 16.1015625 58 C16.10545592 60.23724954 16.10979191 62.47449834 16.11454773 64.71174622 C16.12196418 69.37043676 16.12174888 74.02905141 16.11645508 78.68774414 C16.11061935 84.66435266 16.12771178 90.64065539 16.15079975 96.61721325 C16.16549418 101.22304606 16.16641547 105.82880405 16.16329002 110.43465614 C16.16380385 112.63993251 16.16905313 114.845213 16.17910194 117.05046654 C16.19138643 120.11873139 16.18472651 123.18638424 16.1730957 126.25463867 C16.18073944 127.16628281 16.18838318 128.07792694 16.19625854 129.01719666 C16.18924423 129.85091797 16.18222992 130.68463928 16.17500305 131.54362488 C16.17517079 132.26748477 16.17533854 132.99134466 16.17551136 133.7371397 C15.68527805 136.23244725 14.80598477 137.11936915 12.80078125 138.64453125 C9.75390625 139.03271484 9.75390625 139.03271484 6.05078125 139.04296875 C5.06899902 139.04727402 5.06899902 139.04727402 4.06738281 139.05166626 C2.68553806 139.05370493 1.30366432 139.04818871 -0.078125 139.03564453 C-2.19206325 139.01958561 -4.30408988 139.03549726 -6.41796875 139.0546875 C-7.76172297 139.05270503 -9.10547599 139.04886127 -10.44921875 139.04296875 C-11.67125 139.03958496 -12.89328125 139.03620117 -14.15234375 139.03271484 C-17.53303756 138.60200145 -18.17074136 138.24625702 -20.19921875 135.64453125 C-20.49365472 132.72911905 -20.60573338 130.02547485 -20.58398438 127.10913086 C-20.58935715 126.23718079 -20.59472992 125.36523071 -20.6002655 124.46685791 C-20.61005548 122.57131607 -20.61298398 120.67572935 -20.60990906 118.78016472 C-20.60543399 115.77351918 -20.61942577 112.76746327 -20.63830566 109.76087952 C-20.67513619 103.36793989 -20.68879025 96.97506132 -20.69921875 90.58203125 C-20.7113175 83.19623332 -20.73304373 75.81072094 -20.77922058 68.42505074 C-20.79272602 65.47489636 -20.7886299 62.52510874 -20.78381348 59.57493591 C-20.59345966 44.81904477 -20.59345966 44.81904477 -26.38671875 31.58203125 C-30.0181024 29.08041141 -32.81343527 28.36885343 -37.19921875 28.64453125 C-42.64670744 30.21414664 -46.37979466 32.70017357 -49.19921875 37.64453125 C-52.59951299 46.10276317 -53.35175578 54.80991183 -53.32519531 63.84887695 C-53.32706345 64.62551193 -53.32893158 65.40214691 -53.33085632 66.20231628 C-53.33483161 67.87299076 -53.33693249 69.54367058 -53.33731842 71.21434975 C-53.34165481 75.68919778 -53.37272823 80.16390503 -53.3984375 84.63867188 C-53.42887605 90.31848633 -53.45152646 95.99807472 -53.44970703 101.67797852 C-53.44892191 106.28455066 -53.4721815 110.8904505 -53.51158905 115.49684715 C-53.52206692 117.2499305 -53.52355994 119.00309125 -53.51593781 120.75618935 C-53.50635922 123.20059445 -53.52740637 125.64293959 -53.55566406 128.0871582 C-53.54546738 128.8118631 -53.53527069 129.53656799 -53.52476501 130.28323364 C-53.56671143 132.30049133 -53.56671143 132.30049133 -54.19921875 135.64453125 C-57.8074283 138.62504044 -60.62435972 139.02105658 -65.234375 139.0078125 C-66.37326172 139.00716797 -67.51214844 139.00652344 -68.68554688 139.00585938 C-70.45575195 138.98168945 -70.45575195 138.98168945 -72.26171875 138.95703125 C-73.44572266 138.96025391 -74.62972656 138.96347656 -75.84960938 138.96679688 C-85.73816368 138.90516849 -85.73816368 138.90516849 -89.19921875 136.64453125 C-90.48778231 134.06740414 -90.32800726 132.22377515 -90.33293152 129.33705139 C-90.3371965 128.2111409 -90.34146149 127.08523041 -90.34585571 125.92520142 C-90.34540253 124.68410614 -90.34494934 123.44301086 -90.34448242 122.16430664 C-90.34952034 120.2106292 -90.34952034 120.2106292 -90.35466003 118.21748352 C-90.3635101 114.63899757 -90.36583856 111.06053552 -90.36647582 107.48203969 C-90.36742416 104.4973403 -90.37110158 101.51264651 -90.37464792 98.52794927 C-90.38279622 91.48778688 -90.3852318 84.44763727 -90.38452148 77.4074707 C-90.38392051 70.13885326 -90.39447539 62.87031 -90.41026515 55.60171133 C-90.42332884 49.36642801 -90.42870588 43.13116897 -90.42806607 36.89587206 C-90.42781075 33.16950306 -90.4306808 29.44319996 -90.44124413 25.71684456 C-90.45269861 21.56256135 -90.44818549 17.40844497 -90.44213867 13.25415039 C-90.44775818 12.01507935 -90.45337769 10.7760083 -90.45916748 9.49938965 C-90.45497299 8.37065933 -90.4507785 7.24192902 -90.44645691 6.07899475 C-90.44727406 4.60479616 -90.44727406 4.60479616 -90.44810772 3.10081577 C-90.19921875 0.64453125 -90.19921875 0.64453125 -88.19921875 -2.35546875 C-85.25 -2.7277832 -85.25 -2.7277832 -81.51171875 -2.71875 C-80.85341064 -2.7192485 -80.19510254 -2.71974701 -79.5168457 -2.72026062 C-78.12480654 -2.71791979 -76.73276318 -2.70819055 -75.34082031 -2.69165039 C-73.20729825 -2.66805809 -71.07502556 -2.67108835 -68.94140625 -2.67773438 C-58.47831186 -2.63456186 -58.47831186 -2.63456186 -56.19921875 -0.35546875 C-55.89246643 2.54420882 -55.68748504 5.36236303 -55.57421875 8.26953125 C-55.51621094 9.47222656 -55.51621094 9.47222656 -55.45703125 10.69921875 C-55.36267944 12.68060681 -55.2798566 14.6625377 -55.19921875 16.64453125 C-54.67134766 15.68353516 -54.67134766 15.68353516 -54.1328125 14.703125 C-48.84017155 5.43063916 -42.94818179 -1.87322607 -32.3293457 -4.88598633 C-21.19450591 -7.34011778 -9.62833164 -5.93433584 0 0 Z " fill="#FFFFFF" transform="translate(810.19921875,7.35546875)"/>
<path d="M0 0 C2.74625259 1.28933791 5.32815014 2.83065513 7.9375 4.375 C25.8697088 14.62330668 44.59974435 22.95051597 64 30 C65.0091748 30.36834961 66.01834961 30.73669922 67.05810547 31.11621094 C149.94575601 60.97700177 240.75003882 65.03532886 376.890625 24.265625 C381.0712997 22.56394334 383.53538977 22.55353898 388 23 C390 24.0625 390 24.0625 391 26 C391.6875 29.25 391.6875 29.25 391 33 C385.26095394 41.03852917 373.39618027 46.18351052 365 51 C364.19900879 51.45955078 363.39801758 51.91910156 362.57275391 52.39257812 C340.43847544 64.90848221 316.57756658 73.65369995 292 80 C291.1018457 80.23412598 290.20369141 80.46825195 289.27832031 80.70947266 C273.72129219 84.69095942 257.93059702 87.06688839 242 89 C241.15606689 89.10602539 240.31213379 89.21205078 239.44262695 89.32128906 C229.85774807 90.36701443 220.19239571 90.24387537 210.5625 90.25 C209.60836212 90.25067474 208.65422424 90.25134949 207.6711731 90.25204468 C191.60376079 90.23405845 175.90075259 89.49346576 160 87 C158.93152832 86.83371094 157.86305664 86.66742188 156.76220703 86.49609375 C98.75766144 77.10827579 44.42007646 51.75589348 -0.08984375 13.48046875 C-1.9603366 11.88615605 -3.86752436 10.33341401 -5.81640625 8.8359375 C-8 7 -8 7 -9 4.4375 C-9 2 -9 2 -7.9375 0.125 C-4.9880801 -1.5875664 -3.2804897 -0.82012243 0 0 Z " fill="#F2931B" transform="translate(125,160)"/>
<path d="M0 0 C15.33244042 11.67957061 22.73683729 29.22774461 25.8671875 47.8359375 C28.54439166 71.73757468 25.72433775 95.81230846 11.4921875 115.8984375 C1.93911028 127.266897 -9.79545134 134.50635576 -24.5078125 136.8984375 C-40.69100582 137.82015278 -55.16002059 135.51029138 -67.7578125 124.5859375 C-83.56721094 109.56700898 -89.91340041 89.09920826 -90.6953125 67.66015625 C-91.16603166 46.10707211 -86.81962378 21.90465496 -71.4375 5.66796875 C-51.91805191 -12.23144418 -22.00785792 -15.11844153 0 0 Z M-44.1953125 23.3984375 C-50.51561279 31.76292732 -51.64778472 42.57057655 -51.7109375 52.7109375 C-51.71663757 53.44231934 -51.72233765 54.17370117 -51.72821045 54.92724609 C-51.7376057 56.47020041 -51.74417248 58.01317429 -51.74804688 59.55615234 C-51.75767157 61.86463599 -51.78871262 64.17219635 -51.8203125 66.48046875 C-51.91758148 80.15069849 -51.34510331 95.06056754 -41.9453125 105.8359375 C-38.0888387 109.09910764 -34.64314196 109.24272749 -29.7890625 109.1796875 C-25.23729589 108.61851079 -22.55248726 105.91238653 -19.3828125 102.8359375 C-13.893387 94.23583755 -12.36302478 84.78459878 -12.3046875 74.74609375 C-12.29613739 73.58031044 -12.29613739 73.58031044 -12.28741455 72.39097595 C-12.27800169 70.7478876 -12.27144541 69.10478069 -12.26757812 67.46166992 C-12.25796302 64.99948142 -12.226943 62.53816173 -12.1953125 60.07617188 C-12.1115257 47.53587044 -12.37728775 33.69608926 -19.5078125 22.8984375 C-27.16983119 15.94916473 -36.71662432 16.44151826 -44.1953125 23.3984375 Z " fill="#FFFFFF" transform="translate(675.5078125,11.1015625)"/>
<path d="M0 0 C0.86529327 -0.00350464 1.73058655 -0.00700928 2.62210083 -0.01062012 C5.48569736 -0.01943143 8.34904739 -0.0135909 11.21264648 -0.00683594 C13.19897001 -0.00818264 15.18529321 -0.01012321 17.1716156 -0.01263428 C21.3353082 -0.01558462 25.49891502 -0.01129028 29.66259766 -0.00195312 C35.00844672 0.00944875 40.35409514 0.0028767 45.69993687 -0.00909805 C49.80134096 -0.01631273 53.9026972 -0.01403066 58.00410271 -0.00884247 C59.9757483 -0.00750527 61.9473982 -0.00915614 63.91903877 -0.01380157 C66.67010193 -0.01886117 69.42083643 -0.01116496 72.171875 0 C72.99218704 -0.00404846 73.81249908 -0.00809692 74.65766907 -0.01226807 C80.29271057 0.0302594 80.29271057 0.0302594 82.52124023 2.25878906 C83.99558977 11.20453199 84.75167225 23.53986957 79.52124023 31.25878906 C78.36232487 32.66750597 77.19959564 34.07361462 76.00268555 35.45019531 C72.68365633 39.5021677 69.85259822 43.93977333 66.89624023 48.25878906 C65.49745798 50.26947734 64.09640191 52.27858564 62.69311523 54.28613281 C61.99637695 55.28370605 61.29963867 56.2812793 60.58178711 57.30908203 C59.56181641 58.76918701 59.56181641 58.76918701 58.52124023 60.25878906 C57.56314453 61.63188232 57.56314453 61.63188232 56.58569336 63.03271484 C49.29188299 73.4855181 41.95889673 83.90776482 34.52124023 94.25878906 C35.13418945 94.29319092 35.74713867 94.32759277 36.37866211 94.36303711 C71.47024642 96.479162 71.47024642 96.479162 83.15795898 106.68847656 C86.85463664 110.94654079 85.74535518 117.40603081 85.77124023 122.69628906 C85.79186523 123.74623047 85.81249023 124.79617187 85.83374023 125.87792969 C85.84147461 127.39483398 85.84147461 127.39483398 85.84936523 128.94238281 C85.85871094 129.86591553 85.86805664 130.78944824 85.87768555 131.7409668 C85.4603858 134.68864642 84.47409705 136.05747472 82.52124023 138.25878906 C78.36091552 137.70529557 75.05644462 136.73374669 71.27124023 134.94628906 C50.05670342 126.0029059 24.12951209 124.62474783 2.48071289 133.05322266 C-0.58600415 134.34317313 -3.5758569 135.71171752 -6.56079102 137.18457031 C-9.79610855 138.3756176 -11.26049899 138.39894078 -14.47875977 137.25878906 C-17.63815884 134.09938999 -16.77387319 130.5925359 -16.80102539 126.28027344 C-16.79780273 125.09755859 -16.79458008 123.91484375 -16.79125977 122.69628906 C-16.80737305 121.54064453 -16.82348633 120.385 -16.84008789 119.19433594 C-16.8459152 108.93243767 -15.22457904 101.95983242 -8.97875977 93.69628906 C-8.07364309 92.4760245 -7.17005157 91.25462751 -6.26782227 90.03222656 C-5.80408203 89.40928711 -5.3403418 88.78634766 -4.86254883 88.14453125 C-2.61905814 85.08724083 -0.488324 81.95514678 1.64624023 78.82128906 C4.8605801 74.12000408 8.0925756 69.43198606 11.35327148 64.76269531 C12.03180176 63.79066162 12.71033203 62.81862793 13.40942383 61.81713867 C14.71680348 59.94578216 16.02557868 58.07539931 17.33618164 56.20629883 C23.5412806 47.31965942 29.53046101 38.29072881 35.52124023 29.25878906 C33.54546997 29.27449951 33.54546997 29.27449951 31.52978516 29.29052734 C26.64895336 29.32669189 21.76813344 29.34967666 16.88720703 29.36865234 C14.77358001 29.37871801 12.65996694 29.39237163 10.54638672 29.40966797 C7.51062581 29.43389136 4.4750488 29.44526644 1.43920898 29.45410156 C0.49224655 29.46442413 -0.45471588 29.4747467 -1.43037415 29.48538208 C-2.31106064 29.48553314 -3.19174713 29.4856842 -4.09912109 29.48583984 C-4.87411453 29.49028107 -5.64910797 29.49472229 -6.44758606 29.4992981 C-8.47875977 29.25878906 -8.47875977 29.25878906 -11.47875977 27.25878906 C-11.86694336 24.76855469 -11.86694336 24.76855469 -11.87719727 21.66503906 C-11.88106445 20.55257813 -11.88493164 19.44011719 -11.88891602 18.29394531 C-11.87151367 16.54404297 -11.87151367 16.54404297 -11.85375977 14.75878906 C-11.86536133 13.5921875 -11.87696289 12.42558594 -11.88891602 11.22363281 C-11.88504883 10.11117188 -11.88118164 8.99871094 -11.87719727 7.85253906 C-11.87212158 6.31629883 -11.87212158 6.31629883 -11.86694336 4.74902344 C-11.67479248 3.51635742 -11.67479248 3.51635742 -11.47875977 2.25878906 C-7.62642738 -0.30943253 -4.46548328 -0.02209289 0 0 Z " fill="#FFFFFF" transform="translate(488.478759765625,3.7412109375)"/>
<path d="M0 0 C3.01134398 3.01134398 3.16308537 6.10706921 3.25 10.25 C2.87264694 33.74880426 -7.2586731 57.86320749 -23.796875 74.49609375 C-26.52944752 76.36141364 -28.72570292 76.74848277 -32 77 C-32.33 76.67 -32.66 76.34 -33 76 C-32.58854864 69.77243952 -30.9580443 64.59110026 -28.6875 58.8125 C-22.06801929 41.72696124 -22.06801929 41.72696124 -19.9375 23.6875 C-19.94652344 22.43324219 -19.95554687 21.17898437 -19.96484375 19.88671875 C-19.97644531 18.93410156 -19.98804688 17.98148438 -20 17 C-34.60831418 13.27021766 -47.91510718 13.83494062 -62.82983398 15.2878418 C-68.2530665 15.81051262 -73.55139406 16.10304692 -79 16 C-79.33 14.35 -79.66 12.7 -80 11 C-61.26110898 -6.25950489 -22.92849422 -10.78987963 0 0 Z " fill="#F2931A" transform="translate(552,155)"/>
</svg>
