<?xml version="1.0" encoding="UTF-8"?>
<svg version="1.1" xmlns="http://www.w3.org/2000/svg" width="416" height="112">
<path d="M0 0 C1.27028549 -0.00145523 2.54057098 -0.00291046 3.84934998 -0.00440979 C6.51984391 -0.00275848 9.18888079 0.00658185 11.85913086 0.02954102 C15.25362466 0.05795236 18.64721881 0.05516646 22.04177952 0.0424509 C25.31957602 0.03376125 28.59723133 0.04896404 31.875 0.0625 C33.07943253 0.05956436 34.28386505 0.05662872 35.52479553 0.05360413 C46.11917753 0.17097107 55.16247091 1.73776664 63.1484375 9.14453125 C71.74260713 18.04758224 72.9787783 28.18108355 72.8671875 40.125 C72.86864273 41.39528549 72.87009796 42.66557098 72.87159729 43.97434998 C72.86994598 46.64484391 72.86060565 49.31388079 72.83764648 51.98413086 C72.80923514 55.37862466 72.81202104 58.77221881 72.8247366 62.16677952 C72.83342625 65.44457602 72.81822346 68.72223133 72.8046875 72 C72.80762314 73.20443253 72.81055878 74.40886505 72.81358337 75.64979553 C72.69621643 86.24417753 71.12942086 95.28747091 63.72265625 103.2734375 C54.81960526 111.86760713 44.68610395 113.1037783 32.7421875 112.9921875 C31.47190201 112.99364273 30.20161652 112.99509796 28.89283752 112.99659729 C26.22234359 112.99494598 23.55330671 112.98560565 20.88305664 112.96264648 C17.48856284 112.93423514 14.09496869 112.93702104 10.70040798 112.9497366 C7.42261148 112.95842625 4.14495617 112.94322346 0.8671875 112.9296875 C-0.33724503 112.93262314 -1.54167755 112.93555878 -2.78260803 112.93858337 C-13.37699003 112.82121643 -22.42028341 111.25442086 -30.40625 103.84765625 C-39.00041963 94.94460526 -40.2365908 84.81110395 -40.125 72.8671875 C-40.12645523 71.59690201 -40.12791046 70.32661652 -40.12940979 69.01783752 C-40.12775848 66.34734359 -40.11841815 63.67830671 -40.09545898 61.00805664 C-40.06704764 57.61356284 -40.06983354 54.21996869 -40.0825491 50.82540798 C-40.09123875 47.54761148 -40.07603596 44.26995617 -40.0625 40.9921875 C-40.06543564 39.78775497 -40.06837128 38.58332245 -40.07139587 37.34239197 C-39.95402893 26.74800997 -38.38723336 17.70471659 -30.98046875 9.71875 C-22.07741776 1.12458037 -11.94391645 -0.1115908 0 0 Z M-24.06640625 17.74609375 C-28.54886714 25.63522491 -29.08528268 32.23332409 -29.0625 41.17578125 C-29.06774185 42.38372345 -29.0729837 43.59166565 -29.0783844 44.83621216 C-29.08478716 47.38282505 -29.08349034 49.92946759 -29.07495117 52.47607422 C-29.06644862 56.35177835 -29.09521851 60.22600394 -29.12695312 64.1015625 C-29.12856563 66.58463498 -29.12798667 69.06771004 -29.125 71.55078125 C-29.13623398 72.6990036 -29.14746796 73.84722595 -29.15904236 75.03024292 C-29.08949189 83.1455091 -28.06881472 90.76952624 -22.37890625 96.93359375 C-14.48977509 101.41605464 -7.89167591 101.95247018 1.05078125 101.9296875 C2.86269455 101.93755028 2.86269455 101.93755028 4.71121216 101.9455719 C7.25782505 101.95197466 9.80446759 101.95067784 12.35107422 101.94213867 C16.22677835 101.93363612 20.10100394 101.96240601 23.9765625 101.99414062 C26.45963498 101.99575313 28.94271004 101.99517417 31.42578125 101.9921875 C33.14811478 102.00903847 33.14811478 102.00903847 34.90524292 102.02622986 C43.0205091 101.95667939 50.64452624 100.93600222 56.80859375 95.24609375 C61.29105464 87.35696259 61.82747018 80.75886341 61.8046875 71.81640625 C61.80992935 70.60846405 61.8151712 69.40052185 61.8205719 68.15597534 C61.82697466 65.60936245 61.82567784 63.06271991 61.81713867 60.51611328 C61.80863612 56.64040915 61.83740601 52.76618356 61.86914062 48.890625 C61.87075313 46.40755252 61.87017417 43.92447746 61.8671875 41.44140625 C61.87842148 40.2931839 61.88965546 39.14496155 61.90122986 37.96194458 C61.83167939 29.8466784 60.81100222 22.22266126 55.12109375 16.05859375 C47.23196259 11.57613286 40.63386341 11.03971732 31.69140625 11.0625 C30.48346405 11.05725815 29.27552185 11.0520163 28.03097534 11.0466156 C25.48436245 11.04021284 22.93771991 11.04150966 20.39111328 11.05004883 C16.51540915 11.05855138 12.64118356 11.02978149 8.765625 10.99804688 C6.28255252 10.99643437 3.79947746 10.99701333 1.31640625 11 C0.1681839 10.98876602 -0.98003845 10.97753204 -2.16305542 10.96595764 C-10.2783216 11.03550811 -17.90233874 12.05618528 -24.06640625 17.74609375 Z " fill="#FFFFFF" transform="translate(191.62890625,-0.49609375)"/>
<path d="M0 0 C6.84219551 4.11622121 10.4910614 10.54410825 13 18 C14.43530425 27.30208634 12.6189315 34.98442512 7.8203125 42.9609375 C2.97605796 49.52504572 -4.54206832 53.25199119 -12.46875 54.58203125 C-21.92960227 55.03204967 -29.6747984 52.50924329 -36.9375 46.359375 C-38.52793461 44.65760997 -39.76779361 42.97479435 -41 41 C-41.40992188 40.35546875 -41.81984375 39.7109375 -42.2421875 39.046875 C-45.81933273 32.38598388 -46.05748044 25.38621835 -45 18 C-42.51854152 10.46794052 -38.79957087 4.23395959 -32 0 C-31.34386719 -0.40992188 -30.68773437 -0.81984375 -30.01171875 -1.2421875 C-20.40988521 -6.3327391 -9.287759 -5.21821089 0 0 Z M-30.875 14.0625 C-34.53800469 19.1260653 -34.65533105 23.93588025 -34 30 C-32.18823394 35.39388637 -28.48314334 38.75687503 -24 42 C-19.16935225 43.61021592 -13.8521888 43.95802887 -8.96484375 42.31640625 C-3.80219018 39.58190183 0.14532999 35.56401003 2 30 C2.73488402 23.10895641 2.16296991 18.58714383 -2 13 C-6.18017254 8.79799889 -9.79986938 6.86304733 -15.75 6.6875 C-22.39674729 6.77457529 -26.46996677 9.02996916 -30.875 14.0625 Z " fill="#FFFFFF" transform="translate(224,31)"/>
<path d="M0 0 C2.375 1.625 2.375 1.625 4 4 C4.61195145 7.6717087 4.48706506 9.28813568 2.375 12.375 C-0.69477548 14.4753727 -2.34556561 14.53293835 -6 14 C-8.375 12.9375 -8.375 12.9375 -10 11 C-10.57491549 7.04745604 -10.61372366 4.92058549 -8.375 1.5625 C-5.28314769 -0.47161336 -3.63632575 -0.60605429 0 0 Z " fill="#FFFFFF" transform="translate(241,19)"/>
</svg>
