<?xml version="1.0" encoding="UTF-8"?>
<svg version="1.1" xmlns="http://www.w3.org/2000/svg" width="1314" height="1314">
<path d="M0 0 C16.2515397 12.75821808 31.7391489 27.57378419 44.3203125 43.96875 C45.3572706 45.2569052 46.39653143 46.54320852 47.4375 47.828125 C102.69171741 116.61190904 136.06785454 205.45914988 166.3203125 308.96875 C168.34998321 303.68954482 170.16828649 298.41153953 171.78125 292.9921875 C172.24982077 291.43899982 172.71883493 289.88594585 173.18823242 288.33300781 C173.43286224 287.52174438 173.67749207 286.71048096 173.92953491 285.87463379 C187.54236919 240.88441451 203.37154815 196.57457596 223.3203125 153.96875 C223.87283691 152.78684082 224.42536133 151.60493164 224.99462891 150.38720703 C232.54960304 134.28240489 240.48315484 118.41523538 249.3203125 102.96875 C249.79645996 102.13617676 250.27260742 101.30360352 250.76318359 100.44580078 C272.54231435 62.66928348 300.25662334 23.39188608 336.3203125 -2.03125 C336.91618164 -2.4555127 337.51205078 -2.87977539 338.12597656 -3.31689453 C367.37321832 -23.96517057 400.39434206 -34.58031121 436.5234375 -29.41796875 C464.07194472 -24.35981336 487.76933197 -8.8015796 508.015625 9.8515625 C510.30879656 11.95817095 512.65322979 13.99378281 515.0078125 16.03125 C518.4750304 19.10984803 521.55271452 22.33991785 524.5390625 25.8828125 C525.73420584 27.28238826 526.96455206 28.65259445 528.2265625 29.9921875 C545.98063021 48.87244608 560.46445917 71.5390729 573.3203125 93.96875 C573.83029785 94.85481934 574.3402832 95.74088867 574.86572266 96.65380859 C593.91822444 129.87341439 609.75877974 164.39310534 623.58392334 200.07141113 C624.31389897 201.95222527 625.04833129 203.83124634 625.78369141 205.70996094 C640.11254356 242.39692078 651.6561371 280.07387655 662.3203125 317.96875 C662.55107483 318.78631775 662.78183716 319.6038855 663.01959229 320.44622803 C691.42999914 421.24356226 708.96659291 525.29200492 731.07287598 731.85638428 C731.30398023 734.7633155 731.53785971 737.67000943 731.77246094 740.57666016 C736.39487764 798.17053769 739.28376349 856.00955258 739.44140625 913.79296875 C739.44359728 914.59424509 739.44578831 915.39552143 739.44804573 916.22107887 C739.48755178 933.80375578 739.38471733 951.38623273 739.3203125 968.96875 C691.4703125 968.96875 643.6203125 968.96875 594.3203125 968.96875 C593.8828125 922.15625 593.8828125 922.15625 593.75219727 907.68041992 C593.35814997 865.93409968 592.36150133 824.24480906 590.63702393 782.53199768 C590.50524568 779.34415625 590.37455807 776.15627117 590.24389648 772.96838379 C588.73357424 736.26751233 586.84476367 699.61419014 584.3203125 662.96875 C584.24016907 661.79568298 584.16002563 660.62261597 584.07745361 659.41400146 C577.07072942 557.03137136 566.32495448 454.98112401 500.3203125 151.96875 C500.09752625 151.32939514 499.87473999 150.69004028 499.64520264 150.03131104 C488.89918364 119.23850177 475.95064521 89.49370794 455.3203125 63.96875 C454.89226318 63.4310498 454.46421387 62.89334961 454.02319336 62.33935547 C446.57746258 53.14819484 435.31147007 44.63215753 423.3203125 42.96875 C406.98766267 41.93175636 396.16094341 46.06710044 383.78442383 56.72680664 C337.45220571 98.21314747 320.57365348 174.40792926 305.3203125 231.96875 C304.98966797 233.21597839 304.98966797 233.21597839 304.65234375 234.48840332 C278.79757417 332.45741375 265.74270736 434.15611293 239.75390625 820.3671875 C239.73229998 821.45229237 239.7106937 822.53739723 239.68843269 823.65538406 C239.19849872 848.42587842 238.76721749 873.19744496 238.3203125 897.96875 C190.8003125 897.96875 143.2803125 897.96875 94.3203125 897.96875 C94.0728125 881.736875 93.8253125 865.505 93.5703125 848.78125 C93.3959481 838.56607375 93.21993373 828.35128756 93.015625 818.13671875 C92.99021763 816.8662438 92.96481026 815.59576885 92.93863297 814.28679466 C91.2164593 729.70094029 86.92352147 645.23182401 79.3203125 560.96875 C79.1527243 559.09790741 79.1527243 559.09790741 78.98175049 557.18927002 C73.44919582 495.50044289 66.13868474 434.12755549 56.3203125 372.96875 C56.1406897 371.84740662 55.96106689 370.72606323 55.77600098 369.57073975 C45.6215415 306.40501347 32.97615773 242.9347212 13.3203125 181.96875 C12.96549805 180.84968262 12.61068359 179.73061523 12.24511719 178.57763672 C-0.79154286 137.5676949 -16.88615623 91.34730518 -47.6796875 59.96875 C-48.43636719 59.18757813 -49.19304687 58.40640625 -49.97265625 57.6015625 C-60.24592474 47.64671505 -71.86950394 42.52141401 -86.20703125 42.69921875 C-101.39486997 43.87802738 -113.05093175 53.85864721 -122.6796875 64.96875 C-180.85625781 137.2914763 -196.96337254 251.6729162 -251.55448151 691.914711 C-251.67411376 693.87731133 -251.79440766 695.83987129 -251.91473389 697.8024292 C-253.75270128 727.89718273 -255.06121167 758.0087158 -256.2064743 788.13650894 C-256.2708761 789.82977395 -256.33552895 791.52302944 -256.40045929 793.21627426 C-258.07444144 836.87603598 -258.82914228 880.53014601 -259.2421875 924.21875 C-259.3865625 938.98625 -259.5309375 953.75375 -259.6796875 968.96875 C-307.5296875 968.96875 -355.3796875 968.96875 -404.6796875 968.96875 C-404.6796875 850.05305242 -399.15810655 732.00135889 -311.6796875 263.96875 C-311.43690063 263.20880737 -311.19411377 262.44886475 -310.94396973 261.66589355 C-299.42269918 225.6573603 -285.99401344 190.53256295 -270.6796875 155.96875 C-269.90383301 154.21425537 -269.90383301 154.21425537 -269.11230469 152.42431641 C-263.14062076 138.98901822 -256.75076157 125.8587542 -249.6796875 112.96875 C-249.14972168 111.9979248 -248.61975586 111.02709961 -248.07373047 110.02685547 C-234.94155078 86.03804079 -220.58074339 63.45684529 -203.6796875 41.96875 C-202.97457031 41.06769531 -202.26945313 40.16664063 -201.54296875 39.23828125 C-149.45557078 -25.9431761 -71.59708843 -54.27184546 0 0 Z " fill="#FFCC00" transform="translate(489.6796875,204.03125)"/>
</svg>
