<?xml version="1.0" encoding="UTF-8"?>
<svg version="1.1" xmlns="http://www.w3.org/2000/svg" width="3000" height="2000">
<path d="M0 0 C1.93735519 0.00090637 1.93735519 0.00090637 3.91384888 0.00183105 C22.61611542 0.02560039 41.13255041 0.28094053 59.75 2.1875 C61.09028433 2.31819846 62.43061873 2.44838413 63.77099609 2.578125 C137.13443022 9.764211 208.19657067 28.57364426 380.75 118.1875 C381.92154042 119.01219424 383.09341468 119.83641446 384.265625 120.66015625 C407.7142491 137.20267873 430.0496516 155.12998764 451.07885742 174.65991211 C452.32618358 175.80009031 453.58629561 176.92631033 454.8527832 178.04516602 C461.70192191 184.11154602 468.2001707 190.48415897 474.65551758 196.96264648 C476.4417467 198.7542595 478.23329347 200.54043055 480.02539062 202.32617188 C485.81564514 208.11306405 491.4436865 213.94833083 496.75 220.1875 C498.36967817 221.96320221 499.99411718 223.73458307 501.625 225.5 C505.66402153 229.93381311 509.52506878 234.46804584 513.2890625 239.13671875 C515.08280236 241.36038674 516.88872383 243.56948478 518.7109375 245.76953125 C527.12241994 255.95872477 535.04200801 266.4578055 542.75 277.1875 C543.33958496 278.00798828 543.92916992 278.82847656 544.53662109 279.67382812 C563.32155078 305.92449742 579.73610656 333.62565166 594.75 362.1875 C595.22147461 363.0837207 595.69294922 363.97994141 596.17871094 364.90332031 C634.3077117 437.94105846 656.92400273 519.53128922 665.0625 601.375 C665.14390228 602.1922757 665.22530457 603.00955139 665.30917358 603.85159302 C667.3564508 624.73572286 667.95560903 645.45231606 667.9375 666.4375 C667.93689575 667.72907013 667.9362915 669.02064026 667.93566895 670.35134888 C667.91190059 689.05284285 667.66124597 707.57102943 665.75 726.1875 C665.61939788 727.51705122 665.48920721 728.84664291 665.359375 730.17626953 C663.66548955 747.31568289 661.39245862 764.35706074 658.75 781.375 C658.63047974 782.15625244 658.51095947 782.93750488 658.38781738 783.74243164 C656.92418266 793.23570814 655.06394712 802.49190618 652.59277344 811.77661133 C651.56569334 815.93342942 651.05461548 819.92288329 650.75 824.1875 C650.09 824.1875 649.43 824.1875 648.75 824.1875 C648.62625 825.30125 648.5025 826.415 648.375 827.5625 C647.47806702 834.61338981 646.23726627 841.3026306 643.56762695 847.90454102 C642.65832901 850.44346162 642.03796248 852.97211022 641.421875 855.59765625 C633.64184227 887.18626227 620.30261991 917.82200933 606.7487793 947.30493164 C606.23742432 948.41989014 605.72606934 949.53484863 605.19921875 950.68359375 C604.52379028 952.14043579 604.52379028 952.14043579 603.8347168 953.62670898 C602.9042807 955.82327533 602.23772504 957.85939379 601.75 960.1875 C601.09 960.1875 600.43 960.1875 599.75 960.1875 C599.50765625 961.00863281 599.2653125 961.82976563 599.015625 962.67578125 C597.52638642 966.80795866 595.58923603 970.52084666 593.5 974.375 C593.10031006 975.12241455 592.70062012 975.8698291 592.28881836 976.63989258 C590.00204388 980.90685288 587.66602135 985.14447274 585.3125 989.375 C583.35726873 992.91482803 582.00129379 996.33736526 580.75 1000.1875 C579.75017811 1001.18767808 578.75014985 1002.18764987 577.75 1003.1875 C576.74870557 1004.68207163 575.79107014 1006.20637577 574.8671875 1007.75 C574.33996094 1008.62914062 573.81273438 1009.50828125 573.26953125 1010.4140625 C572.45548828 1011.78691406 572.45548828 1011.78691406 571.625 1013.1875 C571.07457031 1014.10273437 570.52414062 1015.01796875 569.95703125 1015.9609375 C566.96776967 1020.89181706 566.96776967 1020.89181706 564.75 1026.1875 C564.09 1026.1875 563.43 1026.1875 562.75 1026.1875 C562.49089844 1026.90164063 562.23179688 1027.61578125 561.96484375 1028.3515625 C558.09343007 1037.3890105 551.16870501 1045.473368 545.25610352 1053.28662109 C542.64016169 1056.39751149 542.64016169 1056.39751149 541.75 1060.1875 C541.09 1060.1875 540.43 1060.1875 539.75 1060.1875 C539.4813916 1060.7654834 539.2127832 1061.3434668 538.93603516 1061.93896484 C537.72699249 1064.2311186 536.37153195 1066.12660241 534.7734375 1068.1640625 C534.18852539 1068.91292725 533.60361328 1069.66179199 533.00097656 1070.43334961 C532.07236816 1071.61102905 532.07236816 1071.61102905 531.125 1072.8125 C530.49561523 1073.61631104 529.86623047 1074.42012207 529.21777344 1075.24829102 C525.24968874 1080.30846695 521.2545251 1085.34605276 517.203125 1090.33984375 C515.97668172 1091.89927297 514.85048697 1093.53676955 513.75 1095.1875 C513.09 1095.1875 512.43 1095.1875 511.75 1095.1875 C511.5025 1095.72375 511.255 1096.26 511 1096.8125 C508.91936708 1100.76570254 506.91460467 1104.26807526 503.375 1107.0625 C500.37172227 1109.49372483 498.40502948 1112.15163417 496.1796875 1115.28515625 C494.8088459 1117.10919959 493.47362918 1118.69213523 491.75 1120.1875 C491.09 1120.1875 490.43 1120.1875 489.75 1120.1875 C489.49863281 1120.76628906 489.24726562 1121.34507813 488.98828125 1121.94140625 C487.59407086 1124.47033677 486.01209642 1126.1218046 483.9375 1128.125 C483.22464844 1128.82109375 482.51179688 1129.5171875 481.77734375 1130.234375 C481.10832031 1130.87890625 480.43929688 1131.5234375 479.75 1132.1875 C477.26214587 1134.61881199 474.94269427 1136.93886223 472.8125 1139.6875 C470.40085484 1142.61070625 467.6827108 1144.79345036 464.75 1147.1875 C462.31201472 1149.56602222 459.93661934 1151.99554867 457.5625 1154.4375 C454.93512863 1157.00648534 452.26920634 1159.51496357 449.5625 1162 C448.70269531 1162.79019531 447.84289063 1163.58039063 446.95703125 1164.39453125 C444.75 1166.1875 444.75 1166.1875 442.75 1166.1875 C442.49863281 1166.78433594 442.24726562 1167.38117188 441.98828125 1167.99609375 C440.57790813 1170.49205374 439.24945505 1171.57286749 436.9375 1173.25 C432.93808719 1176.24634464 429.10848881 1179.37908994 425.3125 1182.625 C421.25651528 1186.07561386 417.19058304 1189.51049301 413.0625 1192.875 C412.27488281 1193.51824219 411.48726562 1194.16148438 410.67578125 1194.82421875 C408.75 1196.1875 408.75 1196.1875 406.75 1196.1875 C406.75 1196.8475 406.75 1197.5075 406.75 1198.1875 C404.9921875 1199.13151042 403.234375 1200.07552083 401.4765625 1201.01953125 C399.44497635 1202.23513493 399.44497635 1202.23513493 397.75 1205.1875 C396.11328125 1206.1875 396.11328125 1206.1875 394.0625 1207.1875 C389.76994765 1209.47640845 385.93437615 1212.19889775 382.0625 1215.125 C369.26174421 1224.73639236 355.49029109 1233.00108095 341.75 1241.1875 C340.87045654 1241.73962158 339.99091309 1242.29174316 339.0847168 1242.8605957 C336.75 1244.1875 336.75 1244.1875 334.75 1244.1875 C334.75 1244.8475 334.75 1245.5075 334.75 1246.1875 C333.72261719 1246.69539063 332.69523437 1247.20328125 331.63671875 1247.7265625 C324.262687 1251.3859369 316.95010397 1255.08895152 309.7890625 1259.15625 C307.75 1260.1875 307.75 1260.1875 305.75 1260.1875 C305.42 1260.8475 305.09 1261.5075 304.75 1262.1875 C302.24972216 1263.52347867 299.75778824 1264.74829406 297.1875 1265.9375 C296.3610498 1266.32309082 295.53459961 1266.70868164 294.68310547 1267.10595703 C254.09382498 1285.88476976 212.59364901 1301.83451296 169.3125 1313.25 C168.62201569 1313.43218079 167.93153137 1313.61436157 167.22012329 1313.80206299 C141.84773454 1320.45190441 141.84773454 1320.45190441 134.75 1320.1875 C134.75 1320.8475 134.75 1321.5075 134.75 1322.1875 C133.44289063 1322.29449219 132.13578125 1322.40148438 130.7890625 1322.51171875 C126.18575551 1322.97204945 121.64247136 1323.66810957 117.0859375 1324.45703125 C116.38228058 1324.57850021 115.67862366 1324.69996918 114.9536438 1324.82511902 C114.22499115 1324.95090836 113.4963385 1325.07669769 112.74560547 1325.20629883 C97.41915831 1327.85036866 82.10426269 1329.97884052 66.625 1331.5 C65.40861847 1331.62128769 65.40861847 1331.62128769 64.16766357 1331.74502563 C54.53728862 1332.69444922 44.9170158 1333.41510801 35.24801636 1333.83015442 C31.05716214 1334.01908472 26.97162187 1334.41745075 22.80908203 1334.97206116 C18.9618337 1335.37459331 15.11062893 1335.32969703 11.24609375 1335.3203125 C10.3639772 1335.32126923 9.48186066 1335.32222595 8.57301331 1335.32321167 C6.71998014 1335.32388817 4.86694454 1335.32207114 3.01391602 1335.31787109 C0.19216555 1335.31250887 -2.62942624 1335.31783749 -5.45117188 1335.32421875 C-7.26041701 1335.323558 -9.06966206 1335.3222769 -10.87890625 1335.3203125 C-11.71450577 1335.32233673 -12.55010529 1335.32436096 -13.411026 1335.32644653 C-18.12222112 1335.30775499 -22.58377354 1334.91609316 -27.25 1334.1875 C-28.63426326 1334.12726226 -30.02091084 1334.099529 -31.40625 1334.125 C-32.11910156 1334.13273437 -32.83195312 1334.14046875 -33.56640625 1334.1484375 C-34.64728516 1334.16777344 -34.64728516 1334.16777344 -35.75 1334.1875 C-37.19783489 1334.21340045 -38.64576869 1334.23428953 -40.09375 1334.25 C-40.72474609 1334.26160156 -41.35574219 1334.27320313 -42.00585938 1334.28515625 C-45.12683849 1334.14934341 -48.15934393 1333.6456312 -51.25 1333.1875 C-54.90812685 1332.71285667 -58.56935931 1332.26349593 -62.23046875 1331.8125 C-63.27971024 1331.68311035 -64.32895172 1331.5537207 -65.4099884 1331.42041016 C-67.62459455 1331.1477104 -69.8392512 1330.8754205 -72.05395508 1330.60351562 C-75.4092882 1330.19096871 -78.76421239 1329.77519987 -82.11914062 1329.359375 C-84.28122539 1329.09354975 -86.44333403 1328.82791858 -88.60546875 1328.5625 C-90.08734932 1328.3780835 -90.08734932 1328.3780835 -91.59916687 1328.18994141 C-97.63950294 1327.45299353 -103.67140311 1326.88282628 -109.7414093 1326.44946289 C-112.78350604 1326.13178793 -115.37111317 1325.20710575 -118.25 1324.1875 C-120.01669173 1323.87171452 -121.78842798 1323.58377218 -123.5625 1323.3125 C-130.77610323 1322.16931227 -137.82594116 1320.4677767 -144.91650391 1318.74511719 C-147.24633969 1318.18837468 -149.58069471 1317.65737805 -151.91796875 1317.1328125 C-191.08939073 1308.25558113 -229.45388493 1295.23154842 -266.25 1279.1875 C-267.33704224 1278.7219873 -267.33704224 1278.7219873 -268.44604492 1278.24707031 C-277.16859166 1274.46069914 -285.66010493 1270.14649035 -294.19262695 1265.95458984 C-296.38071626 1264.88046728 -298.57104684 1263.8110308 -300.76171875 1262.7421875 C-301.42435226 1262.41507782 -302.08698578 1262.08796814 -302.7696991 1261.75094604 C-305.66043135 1260.343689 -308.46082861 1259.12100512 -311.53051758 1258.15283203 C-314.31992658 1257.16267823 -315.31360062 1256.32809397 -317.25 1254.1875 C-318.53137554 1253.39219857 -319.84513091 1252.64772714 -321.1796875 1251.9453125 C-321.96472656 1251.52548096 -322.74976563 1251.10564941 -323.55859375 1250.6730957 C-324.40550781 1250.22409912 -325.25242187 1249.77510254 -326.125 1249.3125 C-340.57122719 1241.51169595 -354.5552701 1232.90154555 -368.0703125 1223.578125 C-370.28551503 1222.0402952 -370.28551503 1222.0402952 -373.25 1221.1875 C-373.25 1220.5275 -373.25 1219.8675 -373.25 1219.1875 C-373.96414063 1218.93742187 -374.67828125 1218.68734375 -375.4140625 1218.4296875 C-378.53318043 1217.06346229 -380.91544458 1215.36989882 -383.625 1213.3125 C-386.71708865 1211.00590161 -389.71954645 1208.81474827 -393.125 1207 C-396.25 1205.1875 -396.25 1205.1875 -398.5625 1202.87109375 C-401.34172822 1200.09590511 -404.23719527 1197.79663574 -407.375 1195.4375 C-421.65112037 1184.59870933 -435.27226368 1172.95146339 -448.43359375 1160.7890625 C-453.84108814 1155.79406768 -459.26293239 1150.81597589 -464.9375 1146.125 C-467.99407171 1143.527267 -470.51067867 1140.64380411 -473.1015625 1137.58984375 C-475.86627039 1134.49839765 -478.79989148 1131.60093533 -481.75 1128.6875 C-485.83296438 1124.64592284 -489.79867009 1120.58156634 -493.51953125 1116.19921875 C-495.66533274 1113.70466397 -497.89585677 1111.29531018 -500.125 1108.875 C-505.0461693 1103.47281415 -509.6653045 1097.87538786 -514.25 1092.1875 C-515.35315953 1090.8403205 -516.45739835 1089.49402433 -517.5625 1088.1484375 C-518.72920099 1086.72398644 -519.89586776 1085.29950736 -521.0625 1083.875 C-521.88971558 1082.8701355 -521.88971558 1082.8701355 -522.73364258 1081.8449707 C-525.1399405 1078.89691577 -527.44805856 1075.96939603 -529.51171875 1072.76953125 C-530.99412106 1070.11035397 -530.99412106 1070.11035397 -533.25 1069.1875 C-534.16584781 1067.55932611 -535.07835803 1065.92917169 -535.97265625 1064.2890625 C-537.91404172 1061.09497877 -540.28571853 1058.27529899 -542.6640625 1055.3984375 C-544.25 1053.1875 -544.25 1053.1875 -545.2734375 1050.4765625 C-545.75683594 1049.34347656 -545.75683594 1049.34347656 -546.25 1048.1875 C-547.24 1047.8575 -548.23 1047.5275 -549.25 1047.1875 C-550.28515625 1045.6484375 -550.28515625 1045.6484375 -551.3125 1043.5625 C-553.65755335 1039.11327492 -556.31471241 1034.97497634 -559.125 1030.8125 C-560.00656284 1029.50133733 -560.88807372 1028.19013972 -561.76953125 1026.87890625 C-562.19443848 1026.24742676 -562.6193457 1025.61594727 -563.05712891 1024.96533203 C-569.30835525 1015.64862507 -574.83338044 1006.00217691 -580.25 996.1875 C-580.71067871 995.35782715 -581.17135742 994.5281543 -581.64599609 993.67333984 C-598.2759043 963.7016719 -612.99953994 932.82527089 -624.8125 900.625 C-625.10318359 899.83931641 -625.39386719 899.05363281 -625.69335938 898.24414062 C-627.65047476 892.92446458 -629.49051252 887.57555369 -631.25 882.1875 C-631.68928833 880.84546509 -631.68928833 880.84546509 -632.13745117 879.47631836 C-637.23199256 863.84506977 -642.31917316 848.16090148 -646.25 832.1875 C-646.49314941 831.20257568 -646.73629883 830.21765137 -646.98681641 829.20288086 C-652.67996735 805.8275296 -656.92043245 782.36847266 -660.56176758 758.59179688 C-661.11838791 754.98012434 -661.73793091 751.38290792 -662.37890625 747.78515625 C-663.45340547 741.40699605 -663.89843226 735.01248727 -664.3125 728.5625 C-664.39556396 727.34498047 -664.47862793 726.12746094 -664.56420898 724.87304688 C-665.08728787 717.09218422 -665.564029 709.30812889 -665.90844727 701.51708984 C-666.07174089 697.86490673 -666.07174089 697.86490673 -666.76203918 694.28695679 C-667.32434825 691.86761584 -667.34376231 689.73587212 -667.3034668 687.25244141 C-667.28973022 686.26734085 -667.27599365 685.2822403 -667.26184082 684.26728821 C-667.24117554 683.20197372 -667.22051025 682.13665924 -667.19921875 681.0390625 C-667.18121216 679.92730148 -667.16320557 678.81554047 -667.14465332 677.67008972 C-667.0828609 674.05071818 -667.01140745 670.43164346 -666.9375 666.8125 C-666.9132193 665.58066986 -666.8889386 664.34883972 -666.86392212 663.0796814 C-666.49318597 644.73190906 -665.99373404 626.46404382 -664.25 608.1875 C-664.12786133 606.88135742 -664.00572266 605.57521484 -663.87988281 604.22949219 C-659.32834505 556.57242143 -649.82136758 509.78301779 -635.25 464.1875 C-634.89470215 463.05876465 -634.5394043 461.9300293 -634.17333984 460.76708984 C-614.75951346 399.31216527 -585.64703932 339.67560391 -548.25 287.1875 C-547.42530576 286.01595958 -546.60108554 284.84408532 -545.77734375 283.671875 C-529.5685205 260.69626145 -512.06466615 238.70281521 -492.91796875 218.1015625 C-491.55125458 216.60878246 -490.1866478 215.11283611 -488.87719727 213.56958008 C-483.20275063 206.8899202 -476.97430215 200.76119268 -470.77124023 194.57836914 C-468.81704376 192.6295313 -466.86824853 190.67540728 -464.91992188 188.72070312 C-458.86438445 182.66192731 -452.79090483 176.72625796 -446.25 171.1875 C-444.47429779 169.56782183 -442.70291693 167.94338282 -440.9375 166.3125 C-436.50368689 162.27347847 -431.96945416 158.41243122 -427.30078125 154.6484375 C-425.07711326 152.85469764 -422.86801522 151.04877617 -420.66796875 149.2265625 C-410.47877523 140.81508006 -399.9796945 132.89549199 -389.25 125.1875 C-388.42951172 124.59791504 -387.60902344 124.00833008 -386.76367188 123.40087891 C-313.76301845 71.1617483 -229.74196829 33.82207699 -46.25 1.1875 C-44.94836914 1.09106201 -43.64673828 0.99462402 -42.30566406 0.89526367 C-28.21841906 -0.0575214 -14.11335735 -0.01217903 0 0 Z " fill="#FF4500" transform="translate(1499.25,332.8125)"/>
<path d="M0 0 C0.69867187 0.53367187 1.39734375 1.06734375 2.1171875 1.6171875 C15.52517775 12.52096167 24.347776 29.98107114 26.22753906 47.06835938 C27.53699308 64.80775533 22.64707139 83.45115708 11.3515625 97.42578125 C-1.89983054 112.78662749 -19.65026705 122.79266859 -40.0078125 124.37890625 C-60.00847985 124.98558011 -77.4141595 117.75835642 -92.34765625 104.62890625 C-102.70364756 94.36442591 -112.6584123 77.9803327 -113.0546875 62.921875 C-113.0615897 60.94784456 -113.03345354 58.97375902 -113 57 C-114.16418457 56.86295654 -115.32836914 56.72591309 -116.52783203 56.5847168 C-128.51372033 55.0827361 -140.3490211 52.32239294 -152.125 49.6875 C-162.74728165 47.32905662 -173.3841929 45.09367483 -184.0625 43 C-195.8217174 40.69072453 -207.51025313 38.14238099 -219.18579102 35.44726562 C-226.60462231 33.73941956 -234.03308636 32.16113106 -241.50439453 30.70458984 C-247.03107359 29.59060774 -252.51522237 28.30413768 -258 27 C-258.03013184 27.60191162 -258.06026367 28.20382324 -258.09130859 28.82397461 C-258.64338438 36.82907356 -260.2874286 44.47880467 -262.09405518 52.27050781 C-263.01613146 56.25094333 -263.9135186 60.23695245 -264.8125 64.22265625 C-265.08895859 65.44530685 -265.08895859 65.44530685 -265.3710022 66.69265747 C-267.22795355 74.94040613 -268.93989119 83.215714 -270.625 91.5 C-271.20267819 94.33212252 -271.78094399 97.16412489 -272.359375 99.99609375 C-272.49881531 100.67916595 -272.63825562 101.36223816 -272.78192139 102.06600952 C-278.15279821 128.33121514 -284.03694244 154.49422421 -289.81005859 180.67333984 C-292.85542044 194.48449026 -295.70892389 208.32620931 -298.44677734 222.20166016 C-299.29046621 226.46925142 -300.1448293 230.73469693 -301 235 C-300.46012451 234.98477295 -299.92024902 234.9695459 -299.36401367 234.95385742 C-291.30037636 234.83244447 -283.33061428 235.55516841 -275.3125 236.3125 C-274.22060867 236.41428558 -274.22060867 236.41428558 -273.10665894 236.51812744 C-196.01594844 243.73441245 -109.74707471 265.74250808 -47.23046875 313.90234375 C-44.34450462 316.27289812 -44.34450462 316.27289812 -41.9284668 315.72900391 C-39.34694992 314.75313235 -37.70351377 313.24999238 -35.625 311.4375 C-26.83549738 304.21662543 -16.77400049 298.66850265 -6 295 C-5.16855469 294.71382812 -4.33710937 294.42765625 -3.48046875 294.1328125 C20.40564859 286.42761336 47.31892083 289.9995376 69.5625 300.8125 C92.64701561 312.8147286 109.32660237 332.60726583 118 357 C126.12271074 383.31638386 123.08249658 410.57695637 111 435 C106.64325751 443.06625273 101.00851032 450.10374581 95 457 C94.45988281 457.62519531 93.91976562 458.25039062 93.36328125 458.89453125 C86.50157151 466.2747581 77.18868522 472.89243099 68 477 C67.34 477 66.68 477 66 477 C66.13277344 477.70125 66.26554687 478.4025 66.40234375 479.125 C66.57894531 480.07375 66.75554688 481.0225 66.9375 482 C67.11152344 482.928125 67.28554687 483.85625 67.46484375 484.8125 C75.66728835 533.66793644 58.08895384 585.28428384 30 625 C12.84789288 648.9368593 -7.45905517 670.29720949 -31 688 C-31.71671875 688.5465625 -32.4334375 689.093125 -33.171875 689.65625 C-44.3702031 698.1883095 -55.80692946 705.96192007 -68 713 C-68.71978027 713.41701172 -69.43956055 713.83402344 -70.18115234 714.26367188 C-154.32271461 762.71167674 -248.34424596 778.41835025 -377 775 C-377.68092712 774.91987671 -378.36185425 774.83975342 -379.06341553 774.75720215 C-399.21928089 772.37272724 -419.17633784 769.40988475 -439 765 C-440.48566756 764.68094525 -441.97134399 764.36193176 -443.45703125 764.04296875 C-498.63179919 751.89635728 -553.15562765 729.19364681 -599 696 C-599.54833496 695.60329102 -600.09666992 695.20658203 -600.66162109 694.79785156 C-611.63730461 686.8064018 -621.99681186 678.17080606 -632 669 C-633.08954274 668.01529184 -634.17940304 667.03093497 -635.26953125 666.046875 C-641.23243092 660.63925969 -646.85952711 655.20906135 -652 649 C-652.80566406 648.0821875 -653.61132812 647.164375 -654.44140625 646.21875 C-673.2878918 624.6716177 -688.1520966 599.88318791 -698 573 C-698.25523438 572.30680664 -698.51046875 571.61361328 -698.7734375 570.89941406 C-705.21178806 553.17004526 -709.17949887 535.25088603 -709.1328125 516.3359375 C-709.13376923 515.45902252 -709.13472595 514.58210754 -709.13571167 513.67861938 C-709.13638654 511.8417351 -709.13458115 510.00484833 -709.13037109 508.16796875 C-709.12499989 505.37494512 -709.13034647 502.58208131 -709.13671875 499.7890625 C-709.1360581 497.99218715 -709.1347772 496.1953119 -709.1328125 494.3984375 C-709.13483673 493.57427338 -709.13686096 492.75010925 -709.13894653 491.90097046 C-709.11873641 486.84889204 -708.72065672 482.00165823 -708 477 C-708.98097656 476.50113281 -709.96195313 476.00226563 -710.97265625 475.48828125 C-725.20083145 468.01351438 -737.83648883 458.38969814 -747 445 C-747.67417969 444.01644531 -748.34835937 443.03289062 -749.04296875 442.01953125 C-762.20708567 421.74234553 -768.92668155 395.5622323 -764.24609375 371.4921875 C-763.35203966 367.59909703 -762.19997223 363.80897108 -761 360 C-760.58427734 358.47052734 -760.58427734 358.47052734 -760.16015625 356.91015625 C-752.94494077 332.13902475 -734.30418747 313.19859011 -712.16210938 300.98632812 C-691.67370737 290.14209405 -666.73597596 286.84398268 -644.13671875 292.96875 C-643.10160156 293.3090625 -642.06648438 293.649375 -641 294 C-640.38334473 294.19335938 -639.76668945 294.38671875 -639.13134766 294.5859375 C-626.13250487 298.726144 -613.20525258 304.85360643 -603.7109375 314.8828125 C-602.01057532 316.25165961 -602.01057532 316.25165961 -599.66455078 315.7409668 C-596.8383463 314.95504682 -595.0496404 313.94025251 -592.65625 312.26171875 C-591.83342529 311.69501465 -591.01060059 311.12831055 -590.1628418 310.54443359 C-589.284104 309.93164551 -588.40536621 309.31885742 -587.5 308.6875 C-545.24919781 279.93771455 -497.46745619 261.14470481 -448 249 C-447.06236816 248.76974121 -446.12473633 248.53948242 -445.15869141 248.30224609 C-414.09025207 240.8218923 -381.52769333 236.1861401 -349.59765625 235.29003906 C-348.67082031 235.26393555 -347.74398438 235.23783203 -346.7890625 235.2109375 C-345.98162598 235.19337402 -345.17418945 235.17581055 -344.34228516 235.15771484 C-341.82713306 234.98836022 -339.4590876 234.54397833 -337 234 C-336.83395264 233.15405273 -336.66790527 232.30810547 -336.49682617 231.43652344 C-335.8674278 228.23779124 -335.23525529 225.03963148 -334.60131836 221.84179688 C-334.32973182 220.46896296 -334.05918919 219.09592204 -333.78979492 217.72265625 C-332.27088191 209.98383688 -330.62181215 202.31012063 -328.65893555 194.66894531 C-327.70541075 190.80679891 -327.00508838 186.91570864 -326.3125 183 C-324.51913136 173.23337444 -322.37270092 163.55933717 -320.1875 153.875 C-317.02274444 139.84739466 -314.08682444 125.78805239 -311.34643555 111.67138672 C-309.98187623 104.6755441 -308.47647066 97.7545501 -306.69897461 90.8515625 C-305.49497727 85.93969073 -304.60446168 80.97196138 -303.6875 76 C-300.32183458 58.14807416 -296.63453208 40.34364747 -292.32568359 22.69335938 C-291.54090194 19.44904736 -290.83801356 16.20919947 -290.265625 12.921875 C-288.66999904 3.76807912 -287.07347484 -3.3695867 -279.25 -9 C-274.40432448 -12.20235948 -268.65062501 -11.47460206 -263.17480469 -10.49414062 C-260.0196397 -9.79436094 -256.88540436 -9.033501 -253.75 -8.25 C-245.40380435 -6.23779087 -237.07087578 -4.35676929 -228.625 -2.8125 C-222.30346364 -1.65269844 -216.09444282 -0.33182249 -209.875 1.30078125 C-206.66168551 2.08228029 -203.44351411 2.67107508 -200.1875 3.25 C-191.89821212 4.72674885 -183.7051709 6.62095231 -175.5 8.5 C-166.20044263 10.62919389 -156.91452966 12.65880784 -147.51953125 14.328125 C-142.88695681 15.21247883 -138.32263037 16.32719959 -133.7409668 17.44116211 C-124.56458625 19.63636247 -115.27853102 21.30032505 -106 23 C-105.5153125 22.23816406 -105.030625 21.47632813 -104.53125 20.69140625 C-94.51925144 5.26907771 -83.28893062 -5.20484817 -66 -12 C-64.96875 -12.4125 -63.9375 -12.825 -62.875 -13.25 C-40.91007946 -18.97997927 -17.73282002 -13.88569975 0 0 Z " fill="#FFFEFE" transform="translate(1822,612)"/>
<path d="M0 0 C0.88107422 0.00491455 1.76214844 0.0098291 2.66992188 0.01489258 C9.55316071 0.13816881 15.73457428 0.99694582 22.25 3.3125 C23.21808594 3.64121094 24.18617187 3.96992187 25.18359375 4.30859375 C43.00072344 11.00449814 56.30254025 23.68713934 64.5 40.75 C65.44403684 42.92582823 66.36264896 45.11294501 67.25 47.3125 C67.76433594 48.58480469 67.76433594 48.58480469 68.2890625 49.8828125 C73.87286826 66.52985957 70.32257763 85.77909344 63.25 101.3125 C53.81580076 118.91045768 39.43802997 130.56509891 20.5 136.5625 C2.84783715 141.8668445 -14.74548127 139.98599553 -31.0546875 131.56396484 C-47.93085888 122.40344031 -59.67447004 107.93596345 -66.0234375 89.8828125 C-70.02997357 75.70915265 -69.99137073 56.77974338 -63.75 43.3125 C-63.0384375 41.70955078 -63.0384375 41.70955078 -62.3125 40.07421875 C-53.87635724 22.81662863 -38.6522367 9.50897687 -20.5859375 3.171875 C-13.50449578 1.02598357 -7.39001144 -0.048917 0 0 Z " fill="#FF4500" transform="translate(1651.75,999.6875)"/>
<path d="M0 0 C3.5042137 2.83925749 6.77924208 5.84463818 10 9 C10.62777344 9.59167969 11.25554687 10.18335938 11.90234375 10.79296875 C15.98252501 14.98417535 18.62347394 19.70082796 21.25 24.875 C21.5795166 25.52283447 21.9090332 26.17066895 22.24853516 26.83813477 C26.90127275 36.42325019 28.4724095 44.98142362 28.3125 55.625 C28.31572266 56.70523437 28.31894531 57.78546875 28.32226562 58.8984375 C28.1979509 77.43263227 20.25265178 93.41351841 7.75 106.8125 C-1.37254774 115.42911788 -12.10218042 120.40298478 -24 124 C-25.13115234 124.36931641 -25.13115234 124.36931641 -26.28515625 124.74609375 C-42.89608147 129.38691101 -60.77336258 124.9660532 -75.58203125 117.1015625 C-92.20063894 107.2756505 -103.22050029 92.03306444 -108.3125 73.5 C-112.94695651 54.78453105 -110.04569686 36.17938773 -100.3203125 19.57421875 C-90.51563585 3.90612627 -74.62848487 -7.03271561 -56.875 -11.8125 C-37.09063425 -15.96273644 -16.47838886 -11.82377902 0 0 Z " fill="#FF4500" transform="translate(1388,1013)"/>
<path d="M0 0 C4.09895893 1.8441124 7.04640224 4.46624197 10.28515625 7.546875 C26.79448592 22.8500436 49.43057861 30.07972481 70.84765625 35.421875 C72.23573873 35.78361771 73.62376035 36.145594 75.01171875 36.5078125 C82.74884986 38.47628599 90.5114866 39.94960682 98.41015625 41.109375 C99.21171143 41.22877441 100.0132666 41.34817383 100.83911133 41.47119141 C115.81231617 43.53327104 130.8874673 43.6300919 145.97265625 43.609375 C146.92563599 43.60810608 147.87861572 43.60683716 148.86047363 43.60552979 C169.42128158 43.55620737 169.42128158 43.55620737 189.84765625 41.421875 C190.97365234 41.24946289 192.09964844 41.07705078 193.25976562 40.89941406 C224.25983284 35.95466788 257.86468078 27.75042406 281.84765625 6.421875 C283.33584023 5.26073656 284.83535198 4.11391908 286.34765625 2.984375 C286.97671875 2.51128906 287.60578125 2.03820313 288.25390625 1.55078125 C292.67879049 -1.58351176 297.61435088 -0.98524211 302.84765625 -0.578125 C308.48700961 1.37001525 311.24506199 4.53720534 314.09765625 9.671875 C315.37579142 14.35837061 315.85826696 18.85610121 314.04296875 23.46484375 C299.16330137 49.17075188 262.66415218 61.82529152 235.84765625 69.421875 C234.74728027 69.73656738 233.6469043 70.05125977 232.51318359 70.37548828 C223.5303792 72.86410862 214.57521916 74.6730717 205.34765625 76.046875 C204.3000412 76.20462906 204.3000412 76.20462906 203.23126221 76.36557007 C198.44092104 77.08294744 193.64618869 77.76156624 188.84765625 78.421875 C187.86893555 78.55899902 186.89021484 78.69612305 185.88183594 78.83740234 C123.18553571 87.17105005 44.00933828 80.14835044 -7.9140625 40.96875 C-23.37303071 28.94973788 -23.37303071 28.94973788 -25.15234375 21.421875 C-25.82732366 15.6996573 -25.50464688 11.28812147 -22.15234375 6.421875 C-15.4829785 -0.15486017 -9.47058769 -2.54382392 0 0 Z " fill="#FF4601" transform="translate(1356.15234375,1222.578125)"/>
</svg>
