<?xml version="1.0" encoding="UTF-8"?>
<svg version="1.1" xmlns="http://www.w3.org/2000/svg" width="1400" height="1390">
<path d="M0 0 C1.10048676 -0.00067474 2.20097351 -0.00134949 3.33480835 -0.00204468 C33.1910854 0.02685939 62.06204734 2.40150223 91.375 8.25 C92.39335938 8.44851562 93.41171875 8.64703125 94.4609375 8.8515625 C163.39739287 22.42173088 227.48732272 54.15195697 280.375 100.25 C281.16390625 100.92675781 281.9528125 101.60351562 282.765625 102.30078125 C294.38673258 112.47913228 305.81169557 123.44981859 315.32421875 135.640625 C317.22945233 138.06480792 319.2174554 140.39486855 321.24267578 142.71899414 C328.54487104 151.13676674 334.98807907 160.12789154 341.375 169.25 C341.81166992 169.86536621 342.24833984 170.48073242 342.69824219 171.11474609 C354.34249862 187.57460897 364.56532791 205.66045061 372.375 224.25 C372.69130371 225.00023437 373.00760742 225.75046875 373.33349609 226.5234375 C403.20072973 297.98789332 406.02167007 373.89688586 407.375 450.25 C407.96009338 450.13308304 408.54518677 450.01616608 409.14801025 449.89570618 C411.85281251 449.35851322 414.55917662 448.82961571 417.265625 448.30078125 C418.18553223 448.11680786 419.10543945 447.93283447 420.05322266 447.74328613 C429.15065067 445.97700888 438.11731519 445.28445286 447.375 445.25 C448.06980469 445.24597168 448.76460937 445.24194336 449.48046875 445.23779297 C481.76616299 445.36847316 512.48935511 457.6745521 535.375 480.25 C536.0659375 480.85714844 536.756875 481.46429688 537.46875 482.08984375 C556.16683111 498.98708508 567.91901612 528.36694993 569.375 553.25 C570.84627035 589.97017059 560.95240809 622.19964572 535.8125 649.625 C534.00996654 651.50958334 532.19772959 653.38494287 530.375 655.25 C529.53839844 656.14847656 528.70179687 657.04695312 527.83984375 657.97265625 C508.64291241 678.09613631 483.16277276 692.39509892 459.9375 707.375 C459.3094043 707.78016846 458.68130859 708.18533691 458.03417969 708.6027832 C457.4209082 708.99812256 456.80763672 709.39346191 456.17578125 709.80078125 C455.57072754 710.19088379 454.96567383 710.58098633 454.34228516 710.98291016 C452.90533377 711.9084224 451.46736691 712.83235855 450.02880859 713.75537109 C447.5544535 715.34807619 445.08912873 716.95402989 442.625 718.5625 C441.8729126 719.04283691 441.1208252 719.52317383 440.34594727 720.01806641 C435.02655613 723.51261002 430.45868294 726.99895117 428.375 733.25 C427.53848885 743.49726154 432.1133661 752.37567928 436.8125 761.1875 C437.34182129 762.18749023 437.87114258 763.18748047 438.41650391 764.21777344 C450.25175598 786.27708611 464.69104585 806.600086 481.375 825.25 C482.36113281 826.36532104 482.36113281 826.36532104 483.3671875 827.50317383 C488.97223765 833.802059 494.79077164 839.84888986 500.75 845.8125 C501.61882812 846.69357422 502.48765625 847.57464844 503.3828125 848.48242188 C509.39848036 854.51143811 515.72290391 859.93946365 522.375 865.25 C523.40238951 866.11357927 524.42579436 866.98197496 525.44140625 867.859375 C553.00367467 891.49650035 584.98363703 909.79525269 617.125 926.375 C630.9468633 933.5142664 644.19787355 940.44932131 656.375 950.25 C657.17679688 950.88550781 657.97859375 951.52101563 658.8046875 952.17578125 C675.04067733 965.74322604 684.91306811 986.42711812 687.375 1007.25 C688.87942078 1032.70942863 679.62379901 1056.37818954 662.86206055 1075.34521484 C661.37698168 1076.99023244 659.87832106 1078.62166263 658.375 1080.25 C657.26511719 1081.48363281 657.26511719 1081.48363281 656.1328125 1082.7421875 C646.01940495 1093.46621588 633.41632188 1101.24198155 620.49365234 1108.11425781 C618.32151593 1109.27867111 616.17046393 1110.47661537 614.01953125 1111.6796875 C601.26553317 1118.71708773 587.99220989 1124.11706969 574.375 1129.25 C573.61541992 1129.5382666 572.85583984 1129.8265332 572.07324219 1130.12353516 C564.86375459 1132.83525048 557.57438039 1135.20286179 550.203125 1137.4375 C549.24221954 1137.73000893 549.24221954 1137.73000893 548.26190186 1138.02842712 C545.04932598 1139.00577943 541.83457672 1139.97102931 538.61230469 1140.91625977 C524.70604027 1145.06331494 524.70604027 1145.06331494 514.890625 1155.15234375 C512.86101473 1159.30049051 511.22396846 1163.56863812 509.5625 1167.875 C503.85917946 1182.63853821 496.46911298 1194.01934409 485.375 1205.25 C484.80523438 1205.89195313 484.23546875 1206.53390625 483.6484375 1207.1953125 C470.93254756 1221.21539628 450.63554566 1229.77180083 432.375 1233.25 C430.57869141 1233.62898438 430.57869141 1233.62898438 428.74609375 1234.015625 C411.76703363 1237.44030728 394.39639618 1238.17895099 377.125 1238.75 C345.16809623 1239.81469124 314.31067765 1242.87974545 283.375 1251.25 C282.57191406 1251.46317871 281.76882813 1251.67635742 280.94140625 1251.89599609 C261.21286171 1257.28544468 243.20707875 1268.05248995 226.15625 1279.10888672 C221.35156709 1282.18688671 216.4185014 1285.06088549 211.51269531 1287.97363281 C209.16569872 1289.37496883 206.82909498 1290.79284513 204.4921875 1292.2109375 C184.8748541 1304.04713458 164.73690541 1315.02928751 143.39648438 1323.44140625 C141.527154 1324.1891384 139.67655522 1324.98324929 137.828125 1325.78125 C108.67747564 1338.18016873 76.6905367 1344.52694615 45.375 1348.25 C43.93616455 1348.42789062 43.93616455 1348.42789062 42.46826172 1348.609375 C-52.12062482 1359.88153881 -140.35170617 1330.90890582 -219.75390625 1281.29492188 C-260.2100136 1256.02707399 -299.91230952 1242.95526323 -347.625 1240.25 C-349.07044573 1240.15300713 -350.51577048 1240.05418563 -351.9609375 1239.953125 C-359.28644579 1239.45990161 -366.61308531 1239.17595966 -373.95068359 1238.92871094 C-410.8949759 1237.65162429 -448.00251321 1234.57957999 -477.625 1210.25 C-478.33914063 1209.69957031 -479.05328125 1209.14914062 -479.7890625 1208.58203125 C-494.42838394 1196.77142332 -502.90688646 1178.96206534 -509.48071289 1161.80102539 C-509.83254639 1160.89602295 -510.18437988 1159.99102051 -510.546875 1159.05859375 C-510.85206055 1158.25220459 -511.15724609 1157.44581543 -511.47167969 1156.61499023 C-515.18444937 1149.00161177 -521.1043259 1146.37415027 -528.625 1143.25 C-533.05531723 1141.73634815 -537.52738977 1140.41826479 -542.03308105 1139.15332031 C-589.78768234 1125.66599638 -642.26401256 1104.2272883 -670.625 1061.25 C-671.13933594 1060.51652344 -671.65367187 1059.78304688 -672.18359375 1059.02734375 C-683.41215012 1042.02410124 -687.30757488 1018.91515562 -683.4375 999.125 C-677.25610869 973.59441636 -662.49387791 954.42577737 -640.515625 940.625 C-633.33428509 936.25007503 -625.95493864 932.32767818 -618.4074707 928.62890625 C-585.56283194 912.46794483 -553.88642634 893.63181863 -525.625 870.25 C-524.79500488 869.56429932 -524.79500488 869.56429932 -523.94824219 868.86474609 C-513.04101309 859.81493008 -502.5598327 850.37179821 -492.53833008 840.34863281 C-491.06544028 838.8779359 -489.58469735 837.41546466 -488.10351562 835.953125 C-481.83512945 829.72156835 -476.10817979 823.18835544 -470.625 816.25 C-469.69607108 815.1154971 -468.76543175 813.98238931 -467.83203125 812.8515625 C-439.12886255 777.98147496 -439.12886255 777.98147496 -425.37109375 736.46484375 C-426.08499418 730.23743537 -428.42665179 727.1565757 -433.125 723.25 C-437.45948972 719.89799461 -442.07970275 717.02094068 -446.70751953 714.09716797 C-455.41300019 708.5853967 -464.01035666 702.90218995 -472.625 697.25 C-473.66076172 696.57130859 -474.69652344 695.89261719 -475.76367188 695.19335938 C-492.83457026 683.98691702 -509.53187176 672.83454206 -524.23339844 658.59033203 C-525.47440824 657.39504365 -526.73957684 656.22495474 -528.0078125 655.05859375 C-550.21492743 634.08520743 -565.42064059 603.33631394 -566.7331543 572.7277832 C-567.52247265 539.46365245 -559.00039202 508.24874609 -535.82617188 483.54467773 C-511.85377711 458.58987516 -480.30771536 445.96724685 -445.89404297 445.27001953 C-435.21040832 445.17575893 -425.03174231 446.21536544 -414.55078125 448.30078125 C-413.5906311 448.48789673 -412.63048096 448.67501221 -411.64123535 448.86779785 C-409.30163755 449.32435802 -406.96296303 449.78515415 -404.625 450.25 C-404.60518066 449.08581543 -404.58536133 447.92163086 -404.56494141 446.72216797 C-402.85998327 349.40129748 -402.85998327 349.40129748 -393.625 303.25 C-393.42181152 302.21262695 -393.21862305 301.17525391 -393.00927734 300.10644531 C-386.68613034 268.32543013 -376.88401476 236.85216111 -361.63574219 208.16113281 C-360.55319772 206.11423471 -359.49828078 204.05444401 -358.4453125 201.9921875 C-348.58432462 182.81947477 -336.37836206 164.84985707 -322.625 148.25 C-321.9546875 147.41855469 -321.284375 146.58710938 -320.59375 145.73046875 C-318.29341448 142.88422027 -315.96567733 140.06317431 -313.625 137.25 C-313.17060547 136.7024707 -312.71621094 136.15494141 -312.24804688 135.59082031 C-299.98722216 120.89598261 -286.73262255 107.03394559 -271.625 95.25 C-269.7886792 93.6910121 -267.95552968 92.12828365 -266.125 90.5625 C-254.63440962 80.97452368 -242.48057534 71.92213127 -229.625 64.25 C-228.49118896 63.56454102 -228.49118896 63.56454102 -227.33447266 62.86523438 C-191.89278691 41.45491002 -154.83189022 24.64329553 -114.625 14.25 C-113.80080566 14.03537109 -112.97661133 13.82074219 -112.12744141 13.59960938 C-87.58754541 7.28948657 -62.86302131 3.37833036 -37.625 1.25 C-36.59020508 1.15428711 -35.55541016 1.05857422 -34.48925781 0.95996094 C-23.00945772 -0.00446671 -11.51338527 0.00636403 0 0 Z " fill="#FEFEFE" transform="translate(698.625,17.75)"/>
<path d="M0 0 C1.10048676 -0.00067474 2.20097351 -0.00134949 3.33480835 -0.00204468 C33.1910854 0.02685939 62.06204734 2.40150223 91.375 8.25 C92.39335938 8.44851562 93.41171875 8.64703125 94.4609375 8.8515625 C163.39739287 22.42173088 227.48732272 54.15195697 280.375 100.25 C281.16390625 100.92675781 281.9528125 101.60351562 282.765625 102.30078125 C294.38673258 112.47913228 305.81169557 123.44981859 315.32421875 135.640625 C317.22945233 138.06480792 319.2174554 140.39486855 321.24267578 142.71899414 C328.54487104 151.13676674 334.98807907 160.12789154 341.375 169.25 C341.81166992 169.86536621 342.24833984 170.48073242 342.69824219 171.11474609 C354.34249862 187.57460897 364.56532791 205.66045061 372.375 224.25 C372.69130371 225.00023437 373.00760742 225.75046875 373.33349609 226.5234375 C403.20072973 297.98789332 406.02167007 373.89688586 407.375 450.25 C407.96009338 450.13308304 408.54518677 450.01616608 409.14801025 449.89570618 C411.85281251 449.35851322 414.55917662 448.82961571 417.265625 448.30078125 C418.18553223 448.11680786 419.10543945 447.93283447 420.05322266 447.74328613 C429.15065067 445.97700888 438.11731519 445.28445286 447.375 445.25 C448.06980469 445.24597168 448.76460937 445.24194336 449.48046875 445.23779297 C481.76616299 445.36847316 512.48935511 457.6745521 535.375 480.25 C536.0659375 480.85714844 536.756875 481.46429688 537.46875 482.08984375 C556.16683111 498.98708508 567.91901612 528.36694993 569.375 553.25 C570.84627035 589.97017059 560.95240809 622.19964572 535.8125 649.625 C534.00996654 651.50958334 532.19772959 653.38494287 530.375 655.25 C529.53839844 656.14847656 528.70179687 657.04695312 527.83984375 657.97265625 C508.64291241 678.09613631 483.16277276 692.39509892 459.9375 707.375 C459.3094043 707.78016846 458.68130859 708.18533691 458.03417969 708.6027832 C457.4209082 708.99812256 456.80763672 709.39346191 456.17578125 709.80078125 C455.57072754 710.19088379 454.96567383 710.58098633 454.34228516 710.98291016 C452.90533377 711.9084224 451.46736691 712.83235855 450.02880859 713.75537109 C447.5544535 715.34807619 445.08912873 716.95402989 442.625 718.5625 C441.8729126 719.04283691 441.1208252 719.52317383 440.34594727 720.01806641 C435.02655613 723.51261002 430.45868294 726.99895117 428.375 733.25 C427.53848885 743.49726154 432.1133661 752.37567928 436.8125 761.1875 C437.34182129 762.18749023 437.87114258 763.18748047 438.41650391 764.21777344 C450.25175598 786.27708611 464.69104585 806.600086 481.375 825.25 C482.36113281 826.36532104 482.36113281 826.36532104 483.3671875 827.50317383 C488.97223765 833.802059 494.79077164 839.84888986 500.75 845.8125 C501.61882812 846.69357422 502.48765625 847.57464844 503.3828125 848.48242188 C509.39848036 854.51143811 515.72290391 859.93946365 522.375 865.25 C523.40238951 866.11357927 524.42579436 866.98197496 525.44140625 867.859375 C553.00367467 891.49650035 584.98363703 909.79525269 617.125 926.375 C630.9468633 933.5142664 644.19787355 940.44932131 656.375 950.25 C657.17679688 950.88550781 657.97859375 951.52101563 658.8046875 952.17578125 C675.04067733 965.74322604 684.91306811 986.42711812 687.375 1007.25 C688.87942078 1032.70942863 679.62379901 1056.37818954 662.86206055 1075.34521484 C661.37698168 1076.99023244 659.87832106 1078.62166263 658.375 1080.25 C657.26511719 1081.48363281 657.26511719 1081.48363281 656.1328125 1082.7421875 C646.01940495 1093.46621588 633.41632188 1101.24198155 620.49365234 1108.11425781 C618.32151593 1109.27867111 616.17046393 1110.47661537 614.01953125 1111.6796875 C601.26553317 1118.71708773 587.99220989 1124.11706969 574.375 1129.25 C573.61541992 1129.5382666 572.85583984 1129.8265332 572.07324219 1130.12353516 C564.86375459 1132.83525048 557.57438039 1135.20286179 550.203125 1137.4375 C549.24221954 1137.73000893 549.24221954 1137.73000893 548.26190186 1138.02842712 C545.04932598 1139.00577943 541.83457672 1139.97102931 538.61230469 1140.91625977 C524.70604027 1145.06331494 524.70604027 1145.06331494 514.890625 1155.15234375 C512.86101473 1159.30049051 511.22396846 1163.56863812 509.5625 1167.875 C503.85917946 1182.63853821 496.46911298 1194.01934409 485.375 1205.25 C484.80523438 1205.89195313 484.23546875 1206.53390625 483.6484375 1207.1953125 C470.93254756 1221.21539628 450.63554566 1229.77180083 432.375 1233.25 C430.57869141 1233.62898438 430.57869141 1233.62898438 428.74609375 1234.015625 C411.76703363 1237.44030728 394.39639618 1238.17895099 377.125 1238.75 C345.16809623 1239.81469124 314.31067765 1242.87974545 283.375 1251.25 C282.57191406 1251.46317871 281.76882813 1251.67635742 280.94140625 1251.89599609 C261.21286171 1257.28544468 243.20707875 1268.05248995 226.15625 1279.10888672 C221.35156709 1282.18688671 216.4185014 1285.06088549 211.51269531 1287.97363281 C209.16569872 1289.37496883 206.82909498 1290.79284513 204.4921875 1292.2109375 C184.8748541 1304.04713458 164.73690541 1315.02928751 143.39648438 1323.44140625 C141.527154 1324.1891384 139.67655522 1324.98324929 137.828125 1325.78125 C108.67747564 1338.18016873 76.6905367 1344.52694615 45.375 1348.25 C43.93616455 1348.42789062 43.93616455 1348.42789062 42.46826172 1348.609375 C-52.12062482 1359.88153881 -140.35170617 1330.90890582 -219.75390625 1281.29492188 C-260.2100136 1256.02707399 -299.91230952 1242.95526323 -347.625 1240.25 C-349.07044573 1240.15300713 -350.51577048 1240.05418563 -351.9609375 1239.953125 C-359.28644579 1239.45990161 -366.61308531 1239.17595966 -373.95068359 1238.92871094 C-410.8949759 1237.65162429 -448.00251321 1234.57957999 -477.625 1210.25 C-478.33914063 1209.69957031 -479.05328125 1209.14914062 -479.7890625 1208.58203125 C-494.42838394 1196.77142332 -502.90688646 1178.96206534 -509.48071289 1161.80102539 C-509.83254639 1160.89602295 -510.18437988 1159.99102051 -510.546875 1159.05859375 C-510.85206055 1158.25220459 -511.15724609 1157.44581543 -511.47167969 1156.61499023 C-515.18444937 1149.00161177 -521.1043259 1146.37415027 -528.625 1143.25 C-533.05531723 1141.73634815 -537.52738977 1140.41826479 -542.03308105 1139.15332031 C-589.78768234 1125.66599638 -642.26401256 1104.2272883 -670.625 1061.25 C-671.13933594 1060.51652344 -671.65367187 1059.78304688 -672.18359375 1059.02734375 C-683.41215012 1042.02410124 -687.30757488 1018.91515562 -683.4375 999.125 C-677.25610869 973.59441636 -662.49387791 954.42577737 -640.515625 940.625 C-633.33428509 936.25007503 -625.95493864 932.32767818 -618.4074707 928.62890625 C-585.56283194 912.46794483 -553.88642634 893.63181863 -525.625 870.25 C-524.79500488 869.56429932 -524.79500488 869.56429932 -523.94824219 868.86474609 C-513.04101309 859.81493008 -502.5598327 850.37179821 -492.53833008 840.34863281 C-491.06544028 838.8779359 -489.58469735 837.41546466 -488.10351562 835.953125 C-481.83512945 829.72156835 -476.10817979 823.18835544 -470.625 816.25 C-469.69607108 815.1154971 -468.76543175 813.98238931 -467.83203125 812.8515625 C-439.12886255 777.98147496 -439.12886255 777.98147496 -425.37109375 736.46484375 C-426.08499418 730.23743537 -428.42665179 727.1565757 -433.125 723.25 C-437.45948972 719.89799461 -442.07970275 717.02094068 -446.70751953 714.09716797 C-455.41300019 708.5853967 -464.01035666 702.90218995 -472.625 697.25 C-473.66076172 696.57130859 -474.69652344 695.89261719 -475.76367188 695.19335938 C-492.83457026 683.98691702 -509.53187176 672.83454206 -524.23339844 658.59033203 C-525.47440824 657.39504365 -526.73957684 656.22495474 -528.0078125 655.05859375 C-550.21492743 634.08520743 -565.42064059 603.33631394 -566.7331543 572.7277832 C-567.52247265 539.46365245 -559.00039202 508.24874609 -535.82617188 483.54467773 C-511.85377711 458.58987516 -480.30771536 445.96724685 -445.89404297 445.27001953 C-435.21040832 445.17575893 -425.03174231 446.21536544 -414.55078125 448.30078125 C-413.5906311 448.48789673 -412.63048096 448.67501221 -411.64123535 448.86779785 C-409.30163755 449.32435802 -406.96296303 449.78515415 -404.625 450.25 C-404.60518066 449.08581543 -404.58536133 447.92163086 -404.56494141 446.72216797 C-402.85998327 349.40129748 -402.85998327 349.40129748 -393.625 303.25 C-393.42181152 302.21262695 -393.21862305 301.17525391 -393.00927734 300.10644531 C-386.68613034 268.32543013 -376.88401476 236.85216111 -361.63574219 208.16113281 C-360.55319772 206.11423471 -359.49828078 204.05444401 -358.4453125 201.9921875 C-348.58432462 182.81947477 -336.37836206 164.84985707 -322.625 148.25 C-321.9546875 147.41855469 -321.284375 146.58710938 -320.59375 145.73046875 C-318.29341448 142.88422027 -315.96567733 140.06317431 -313.625 137.25 C-313.17060547 136.7024707 -312.71621094 136.15494141 -312.24804688 135.59082031 C-299.98722216 120.89598261 -286.73262255 107.03394559 -271.625 95.25 C-269.7886792 93.6910121 -267.95552968 92.12828365 -266.125 90.5625 C-254.63440962 80.97452368 -242.48057534 71.92213127 -229.625 64.25 C-228.49118896 63.56454102 -228.49118896 63.56454102 -227.33447266 62.86523438 C-191.89278691 41.45491002 -154.83189022 24.64329553 -114.625 14.25 C-113.80080566 14.03537109 -112.97661133 13.82074219 -112.12744141 13.59960938 C-87.58754541 7.28948657 -62.86302131 3.37833036 -37.625 1.25 C-36.59020508 1.15428711 -35.55541016 1.05857422 -34.48925781 0.95996094 C-23.00945772 -0.00446671 -11.51338527 0.00636403 0 0 Z M-39.625 79.25 C-40.66245361 79.37028564 -41.69990723 79.49057129 -42.76879883 79.61450195 C-57.54416888 81.35318186 -72.09484076 84.08022338 -86.625 87.25 C-87.49334473 87.43788086 -88.36168945 87.62576172 -89.25634766 87.81933594 C-107.43610447 91.83225885 -125.77648758 97.4915909 -142.50390625 105.73046875 C-145.70297064 107.28796068 -148.94234379 108.69992254 -152.20947266 110.10668945 C-161.06060125 113.93715816 -169.37856399 118.23132413 -177.625 123.25 C-178.24020508 123.61818848 -178.85541016 123.98637695 -179.48925781 124.36572266 C-190.07951207 130.71396487 -200.08320633 137.7510932 -209.99951172 145.10180664 C-211.625 146.25 -211.625 146.25 -213.625 147.25 C-213.625 147.91 -213.625 148.57 -213.625 149.25 C-214.15867187 149.476875 -214.69234375 149.70375 -215.2421875 149.9375 C-218.39826348 151.67592874 -221.03227495 153.90948882 -223.75 156.25 C-224.34965576 156.76618896 -224.94931152 157.28237793 -225.56713867 157.81420898 C-237.56273689 168.31588342 -248.85427315 179.6451678 -258.625 192.25 C-260.08196892 193.98031646 -261.54035327 195.70944187 -263 197.4375 C-268.68211818 204.38120735 -273.64768613 211.79496616 -278.625 219.25 C-279.25277344 220.17425781 -279.88054687 221.09851563 -280.52734375 222.05078125 C-295.02260988 243.98126624 -304.57673076 268.05491926 -311.625 293.25 C-311.99020752 294.55348389 -311.99020752 294.55348389 -312.36279297 295.88330078 C-319.00885484 320.21638402 -322.99508805 346.0963988 -324.625 371.25 C-324.70609512 372.40450653 -324.78719025 373.55901306 -324.8707428 374.74850464 C-325.62462759 385.96360118 -325.77229468 397.13367723 -325.7578125 408.37109375 C-325.75848847 410.25098178 -325.75946093 412.13086972 -325.76071167 414.01075745 C-325.76217231 417.91595303 -325.76008562 421.82112549 -325.75537109 425.72631836 C-325.74964687 430.70772082 -325.75298017 435.68906969 -325.75894356 440.67047024 C-325.76256992 444.5388275 -325.76140154 448.4071722 -325.75881577 452.27552986 C-325.75815367 454.11217315 -325.75894952 455.94881761 -325.76129532 457.78545952 C-325.81512665 469.99016462 -325.81512665 469.99016462 -324.87646484 482.14826965 C-324.43980758 485.79782878 -324.27948881 489.46351439 -324.08984375 493.1328125 C-324.04654938 493.94246964 -324.003255 494.75212677 -323.95864868 495.58631897 C-323.45623233 505.13822848 -323.01839686 514.69301664 -322.625 524.25 C-322.59539185 524.95586243 -322.56578369 525.66172485 -322.53527832 526.38897705 C-322.37116968 530.40494996 -322.25970787 534.41889157 -322.1875 538.4375 C-322.15325928 539.38447754 -322.11901855 540.33145508 -322.08374023 541.30712891 C-322.05360498 545.84609247 -322.13225182 547.62424987 -325.02734375 551.30078125 C-329.51654684 554.66937124 -333.13626359 554.78476187 -338.625 554.25 C-346.74982546 552.60174434 -354.24931072 550.19665601 -361.71875 546.59375 C-390.68720277 533.1997342 -432.86675416 514.81020177 -464.625 526.25 C-470.46065693 529.03957227 -475.34490607 532.35846408 -479.625 537.25 C-480.43710937 538.13171875 -481.24921875 539.0134375 -482.0859375 539.921875 C-484.91232859 543.33125809 -486.21157728 546.78387433 -487.4375 551 C-487.64761719 551.70737305 -487.85773438 552.41474609 -488.07421875 553.14355469 C-489.61855953 558.63147996 -490.42951047 563.55369595 -489.625 569.25 C-489.50253906 570.1678125 -489.38007813 571.085625 -489.25390625 572.03125 C-485.42175851 592.11698988 -467.67910889 607.21816582 -451.625 618.25 C-450.17867188 619.24386719 -450.17867188 619.24386719 -448.703125 620.2578125 C-442.84054072 624.21273047 -436.88089629 628.01492573 -430.91772461 631.81542969 C-426.81130772 634.44689099 -422.8005208 637.19309422 -418.8125 640 C-415.3234663 642.44106097 -411.88428728 644.7505248 -408.125 646.75 C-403.79924644 649.0544469 -399.84172342 651.79108302 -395.83496094 654.6081543 C-391.72592117 657.49662302 -387.56670723 660.29564187 -383.375 663.0625 C-342.23909795 690.36129289 -342.23909795 690.36129289 -338.625 706.25 C-333.30558722 748.10988636 -362.60479023 796.05959136 -384.51953125 829.55810547 C-385.56029595 831.15097194 -386.59292329 832.74914681 -387.625 834.34765625 C-394.55912101 844.958539 -402.36116232 854.83484197 -410.4375 864.59375 C-411.85019658 866.30916728 -413.2473014 868.0376002 -414.625 869.78125 C-427.63363226 886.14059058 -442.68458811 901.72813336 -458.625 915.25 C-459.73573263 916.22240976 -460.84495898 917.19654131 -461.953125 918.171875 C-474.09678022 928.83642377 -486.65169403 938.71387239 -499.87060547 948.00732422 C-501.64399397 949.26345384 -503.40356976 950.53690535 -505.16015625 951.81640625 C-512.13643743 956.88830945 -519.20887404 961.65216095 -526.62939453 966.06298828 C-528.94361733 967.43951767 -531.2506553 968.82780469 -533.55859375 970.21484375 C-548.23322255 978.99574906 -563.09358923 987.44814699 -578.359375 995.1640625 C-593.01690532 1001.7749066 -593.01690532 1001.7749066 -603.625 1013.25 C-604.08127859 1018.06348845 -604.26186514 1020.22897373 -601.67578125 1024.375 C-590.94462283 1035.64195092 -578.56431164 1042.04976869 -564.53466797 1048.38330078 C-562.90263576 1049.12399553 -561.28031422 1049.88602397 -559.66015625 1050.65234375 C-547.39191259 1056.42672009 -534.77611364 1060.6632419 -521.71923828 1064.24584961 C-517.56701592 1065.38647053 -513.62117968 1066.63949949 -509.625 1068.25 C-507.23754498 1068.88646938 -504.84035473 1069.4868926 -502.4375 1070.0625 C-501.00614543 1070.41518869 -499.57516891 1070.76941443 -498.14453125 1071.125 C-497.40283691 1071.30933594 -496.66114258 1071.49367188 -495.89697266 1071.68359375 C-495.14722168 1071.87050781 -494.3974707 1072.05742188 -493.625 1072.25 C-492.51390869 1072.52650391 -492.51390869 1072.52650391 -491.38037109 1072.80859375 C-453.64264761 1082.3354184 -453.64264761 1082.3354184 -444.70092773 1097.20288086 C-439.71121183 1106.69658811 -438.51117102 1116.61662187 -437.37890625 1127.13476562 C-436.17603543 1136.63311045 -433.35435774 1144.88392265 -427.0625 1152.25 C-419.54419272 1156.62428787 -411.18977449 1158.57935007 -402.55078125 1159.07421875 C-400.625 1159.25 -400.625 1159.25 -398.625 1160.25 C-396.18265602 1160.38335176 -393.76447501 1160.4604777 -391.3203125 1160.49609375 C-389.78523208 1160.52756256 -388.25015742 1160.55931285 -386.71508789 1160.59130859 C-385.90540558 1160.60667664 -385.09572327 1160.62204468 -384.26150513 1160.63787842 C-360.76068807 1161.10220067 -337.47459684 1162.35880668 -314.20898438 1165.87207031 C-311.65801067 1166.24517191 -309.1049458 1166.57793904 -306.546875 1166.8984375 C-276.86300625 1170.6875647 -247.67952968 1178.31087711 -220.625 1191.25 C-219.70203125 1191.67796875 -218.7790625 1192.1059375 -217.828125 1192.546875 C-212.36558454 1195.15939435 -207.33540404 1198.27277087 -202.26171875 1201.5703125 C-199.99954577 1203.01140047 -197.72971106 1204.34382513 -195.375 1205.625 C-185.90808403 1210.77636689 -176.7427487 1216.50919526 -167.625 1222.25 C-165.96064843 1223.25384841 -164.29353524 1224.2531209 -162.625 1225.25 C-162.06828613 1225.58515625 -161.51157227 1225.9203125 -160.93798828 1226.265625 C-139.35886723 1239.23699226 -117.46884877 1250.08774462 -93.625 1258.25 C-92.05298828 1258.84554688 -92.05298828 1258.84554688 -90.44921875 1259.453125 C-77.2513186 1264.26343232 -63.38379017 1266.60021841 -49.625 1269.25 C-48.63661133 1269.44722656 -47.64822266 1269.64445312 -46.62988281 1269.84765625 C-40.695733 1270.9957988 -34.91314659 1271.65729618 -28.875 1271.875 C-27.93180908 1271.91222168 -26.98861816 1271.94944336 -26.0168457 1271.98779297 C-15.95164276 1272.327659 -5.88242506 1272.35651823 4.1875 1272.375 C5.41176697 1272.37901825 5.41176697 1272.37901825 6.6607666 1272.38311768 C22.74359091 1272.42310862 38.64091891 1272.25313914 54.4375 1268.9375 C55.54383789 1268.71384766 56.65017578 1268.49019531 57.79003906 1268.25976562 C60.98869345 1267.60606682 64.18229966 1266.93211226 67.375 1266.25 C68.2314209 1266.07033691 69.0878418 1265.89067383 69.97021484 1265.70556641 C78.56194479 1263.88599448 86.80583366 1261.60098482 95.03125 1258.49609375 C97.58365969 1257.54490369 100.1262828 1256.66909163 102.71484375 1255.828125 C116.43830964 1251.28971278 129.61427656 1244.99647225 142.375 1238.25 C143.12297852 1237.85474121 143.87095703 1237.45948242 144.64160156 1237.05224609 C157.58485683 1230.16395568 170.10381144 1222.64206175 182.58935547 1214.96240234 C222.56373582 1190.3891943 222.56373582 1190.3891943 242.375 1183.25 C243.68772271 1182.72972825 245.00026236 1182.20899401 246.3125 1181.6875 C256.18907509 1178.06680327 266.18676508 1175.11578162 276.50390625 1173.06640625 C279.43569374 1172.44809789 282.31504218 1171.77191028 285.21484375 1171.02734375 C296.48851068 1168.15082622 307.41560879 1166.36598134 319.0078125 1165.45166016 C321.97983701 1165.19847408 324.93722502 1164.85830619 327.89892578 1164.50634766 C343.08852816 1162.70663173 358.30882826 1161.33340477 373.60546875 1161.0078125 C374.41027176 1160.99011307 375.21507477 1160.97241364 376.04426575 1160.95417786 C380.02735775 1160.87039294 384.00961854 1160.8051472 387.9934082 1160.76733398 C395.62991792 1160.66006518 403.03938128 1160.19425872 410.57421875 1158.89453125 C411.60065491 1158.71960899 411.60065491 1158.71960899 412.64782715 1158.54115295 C419.94071278 1157.16109363 427.12977952 1154.48910895 432.44921875 1149.1796875 C438.35849898 1140.18991028 439.45701276 1130.53075039 440.70898438 1120.05859375 C442.29224626 1108.27131362 446.03600539 1096.1623249 455.60546875 1088.453125 C468.06611047 1079.93238361 482.64639939 1075.58366213 497.10888672 1071.84277344 C500.8768201 1070.85715156 504.62485983 1069.80093505 508.375 1068.75 C512.8316479 1067.50154064 517.28900784 1066.26575571 521.76953125 1065.10546875 C549.20601515 1057.92008512 587.88807215 1045.91980591 605.375 1022.25 C607.00523814 1018.98952371 606.8423535 1016.87198965 606.375 1013.25 C599.6952322 1001.93212101 585.92817509 997.01736647 574.62207031 991.71728516 C556.76884268 983.26934071 539.90976656 973.01898291 523.375 962.25 C522.26898437 961.53199219 521.16296875 960.81398438 520.0234375 960.07421875 C503.79133264 949.38843996 488.28210472 937.71331706 473.375 925.25 C472.59286133 924.59741211 472.59286133 924.59741211 471.79492188 923.93164062 C455.04640122 909.91192262 438.4596921 894.98876684 424.375 878.25 C423.14716797 876.82107422 423.14716797 876.82107422 421.89453125 875.36328125 C408.25235811 859.44904305 395.85871316 842.78312595 384.375 825.25 C383.72144531 824.25484375 383.06789063 823.2596875 382.39453125 822.234375 C375.15487696 811.04727124 369.22295739 799.20375155 363.375 787.25 C362.85969727 786.20054199 362.85969727 786.20054199 362.33398438 785.12988281 C333.78361558 726.71184948 333.78361558 726.71184948 342.609375 700.59765625 C344.45204296 697.19966707 346.29814803 694.29714571 349.07421875 691.59765625 C350.60649428 690.32233382 350.60649428 690.32233382 350.375 688.25 C351.035 688.25 351.695 688.25 352.375 688.25 C352.375 687.59 352.375 686.93 352.375 686.25 C352.91866211 686.01031494 353.46232422 685.77062988 354.02246094 685.52368164 C356.96478566 683.93068578 359.3984093 681.95757049 362.015625 679.87109375 C370.07725451 673.55682715 378.58476869 667.951818 387.125 662.3125 C388.65652208 661.29533142 390.18777302 660.27775447 391.71875 659.25976562 C403.34288405 651.54150033 415.04777814 643.94991904 426.79174805 636.41552734 C448.2251776 622.72286883 448.2251776 622.72286883 468.375 607.25 C468.96796875 606.80140625 469.5609375 606.3528125 470.171875 605.890625 C480.7017076 597.67928765 490.58569938 583.66975463 492.375 570.25 C493.65517088 558.57276562 490.70678269 547.10627097 483.625 537.6875 C479.70028586 533.27219659 475.62583657 529.95574509 470.375 527.25 C469.58480469 526.8375 468.79460937 526.425 467.98046875 526 C449.17241598 518.06922518 427.70767753 524.11708718 409.375 530.25 C408.35365967 530.58708984 407.33231934 530.92417969 406.2800293 531.27148438 C389.63269951 536.66704629 389.63269951 536.66704629 373.46875 543.3203125 C370.11447882 544.80970903 366.66389911 546.01415332 363.20703125 547.2421875 C361.30312347 547.91971606 359.40465882 548.61271962 357.51171875 549.3203125 C340.17926054 555.79301473 340.17926054 555.79301473 331.375 554.25 C328.3125 551.8125 328.3125 551.8125 326.375 549.25 C326.045 548.92 325.715 548.59 325.375 548.25 C325.26967779 545.13679942 325.23465181 542.0510294 325.25 538.9375 C325.25265869 537.97432861 325.25531738 537.01115723 325.25805664 536.01879883 C325.30937118 527.82081382 325.53190481 519.63055453 325.8125 511.4375 C325.85165527 510.26469482 325.89081055 509.09188965 325.93115234 507.88354492 C326.13688608 502.38982346 326.47550782 496.97745625 327.13647461 491.52124023 C329.23540144 471.53524604 328.4799312 450.99850864 328.5 430.9375 C328.5025882 429.75719208 328.50517639 428.57688416 328.50784302 427.36080933 C328.52966137 414.71723809 328.41626516 402.09225838 327.9296875 389.45703125 C327.89094513 388.43010666 327.85220276 387.40318207 327.81228638 386.34513855 C327.5930897 381.24260838 327.1080587 376.30740899 326.375 371.25 C326.2413041 369.02899001 326.16238705 366.80971463 326.08787537 364.58596802 C325.69444797 353.01878798 324.22465007 341.77869804 322.3125 330.375 C322.084487 328.98832626 322.084487 328.98832626 321.85186768 327.57363892 C317.48580484 301.20254011 311.11716773 275.39898647 299.375 251.25 C299.07722656 250.62867188 298.77945313 250.00734375 298.47265625 249.3671875 C291.11507635 234.04144016 282.53417325 219.87710074 272.375 206.25 C271.97168457 205.70633789 271.56836914 205.16267578 271.15283203 204.60253906 C266.33518095 198.13628429 261.3002732 191.88092417 256.0625 185.75 C255.57088379 185.17443359 255.07926758 184.59886719 254.57275391 184.00585938 C251.63627089 180.60708746 248.57923211 177.40170372 245.375 174.25 C244.17293939 173.02755386 242.97256325 171.80345014 241.7734375 170.578125 C234.30980731 162.99220097 226.856702 155.70896548 218.375 149.25 C217.7984668 148.80237305 217.22193359 148.35474609 216.62792969 147.89355469 C182.59266536 121.47260117 143.15602927 101.10873797 101.375 90.25 C100.46733887 90.0118457 99.55967773 89.77369141 98.62451172 89.52832031 C82.99849736 85.47741664 67.3626545 82.44952854 51.375 80.25 C50.34761719 80.09901855 49.32023438 79.94803711 48.26171875 79.79248047 C32.43397302 77.50849537 16.77768654 76.96235194 0.8125 76.9375 C-0.573358 76.93212219 -0.573358 76.93212219 -1.98721313 76.92663574 C-14.66231739 76.90013854 -27.0504986 77.68181064 -39.625 79.25 Z " fill="#000000" transform="translate(698.625,17.75)"/>
</svg>
