<?xml version="1.0" encoding="UTF-8"?>
<svg version="1.1" xmlns="http://www.w3.org/2000/svg" width="1192" height="800">
<path d="M0 0 C4.79573417 0.70484854 8.57579454 2.001 12.8125 4.3125 C13.45413086 4.65933838 14.09576172 5.00617676 14.75683594 5.36352539 C22.94919961 9.92217937 30.4972549 15.39947 38 21 C38.94101563 21.69351562 39.88203125 22.38703125 40.8515625 23.1015625 C61.05403782 38.80069967 77.33474638 58.31629043 89 81 C89.31807617 81.60634277 89.63615234 82.21268555 89.96386719 82.83740234 C106.56123522 114.79210517 111.04556019 154.0261754 100.546875 188.53515625 C98.16874781 195.75267816 94.73039816 202.40049223 91 209 C90.45601562 209.97324219 89.91203125 210.94648438 89.3515625 211.94921875 C75.419763 235.22551791 52.99566336 252.40265468 27 260 C26.28634277 260.20882813 25.57268555 260.41765625 24.83740234 260.6328125 C4.48980784 266.25944988 -19.59688516 266.62374116 -40 261 C-41.08812988 260.70198486 -41.08812988 260.70198486 -42.19824219 260.39794922 C-59.42387474 255.50305363 -73.42827975 247.60276602 -87 236 C-87.68578125 235.41734375 -88.3715625 234.8346875 -89.078125 234.234375 C-110.37701794 214.52792266 -119.53924672 184.65122899 -120.87475586 156.5637207 C-121.83178135 127.70384439 -108.9310515 101.31655942 -89.52587891 80.54248047 C-85.04229649 75.88430595 -80.22337437 71.8124092 -75 68 C-74.12021484 67.30390625 -74.12021484 67.30390625 -73.22265625 66.59375 C-71.6875 65.4375 -71.6875 65.4375 -69 64 C-66.33203125 64.41015625 -66.33203125 64.41015625 -64 65 C-63.91363281 65.95777344 -63.82726562 66.91554688 -63.73828125 67.90234375 C-62.970773 75.48220908 -61.76066721 82.7400963 -59.625 90.0625 C-59.42817627 90.75142334 -59.23135254 91.44034668 -59.02856445 92.15014648 C-57.58914626 96.85842221 -55.56730295 100.79945539 -53 105 C-42.01075359 101.75727155 -32.66909037 96.48548762 -24 89 C-23.32195312 88.41734375 -22.64390625 87.8346875 -21.9453125 87.234375 C-8.48166689 74.76609619 -0.9959931 55.72021942 0.15390015 37.57092285 C0.36123605 31.40095145 0.27570376 25.23398959 0.1875 19.0625 C0.17240962 17.20378702 0.158729 15.34506203 0.14648438 13.48632812 C0.11386108 8.99058188 0.06232553 4.49542853 0 0 Z " fill="#FEFEFE" transform="translate(169,268)"/>
<path d="M0 0 C15.18 0 30.36 0 46 0 C46 82.83 46 165.66 46 251 C30.82 251 15.64 251 0 251 C-0.33 245.72 -0.66 240.44 -1 235 C-2.175625 236.155 -3.35125 237.31 -4.5625 238.5 C-16.41953068 248.9817638 -32.1850586 255.30715495 -48 256 C-48.66644531 256.03996094 -49.33289063 256.07992188 -50.01953125 256.12109375 C-69.76726349 256.74393503 -89.30851796 250.67889755 -104.25 237.625 C-105.85179658 236.10252561 -107.43603629 234.56131293 -109 233 C-110.04800781 231.96939453 -110.04800781 231.96939453 -111.1171875 230.91796875 C-131.26576207 209.78940515 -135.69330034 179.59152951 -135.09326172 151.60791016 C-134.13948558 124.9371335 -124.59652275 99.51245979 -105 81 C-86.45452208 65.86765379 -65.40442672 61.15730657 -42 63 C-33.70162952 64.04675774 -26.16499384 67.14783233 -18.6875 70.75 C-17.75478271 71.19762695 -17.75478271 71.19762695 -16.80322266 71.65429688 C-10.71943215 74.78832222 -6.61215434 78.51027653 -1 83 C-0.67 55.61 -0.34 28.22 0 0 Z M-74 118 C-86.55561821 133.48629077 -88.32095745 151.83429259 -87 171 C-85.45067421 183.50208913 -79.6752222 195.52890939 -70.4453125 204.1796875 C-59.16288289 212.57842903 -47.80806007 214.97373195 -34 214 C-29.47628666 213.07617841 -25.28747394 211.70155624 -21 210 C-20.11570312 209.649375 -19.23140625 209.29875 -18.3203125 208.9375 C-11.58497783 205.91604146 -3.38803937 200.77607875 0 194 C0.12775866 191.85780589 0.19074809 189.71165125 0.22460938 187.56591797 C0.23599945 186.90547989 0.24738953 186.24504181 0.25912476 185.56459045 C0.36989257 178.64651389 0.41723168 171.72737036 0.45996094 164.80859375 C0.48220257 161.5297384 0.523917 158.25202736 0.58300781 154.97363281 C0.65431397 151.00949999 0.69082461 147.04644056 0.70307922 143.08169937 C0.71344576 141.57540959 0.73578947 140.06915003 0.77067566 138.56322861 C1.12253946 128.66463616 1.12253946 128.66463616 -3.38037109 120.14575195 C-5.17863764 118.41026948 -5.17863764 118.41026948 -7 117 C-7.86882812 116.29488281 -8.73765625 115.58976562 -9.6328125 114.86328125 C-30.46909604 101.89775686 -55.69200438 98.67734438 -74 118 Z " fill="#FEFEFE" transform="translate(827,276)"/>
<path d="M0 0 C20.43994058 16.74254873 30.30758707 39.66437009 34.57910156 65.29345703 C34.57910156 75.19345703 34.57910156 85.09345703 34.57910156 95.29345703 C-9.97089844 95.29345703 -54.52089844 95.29345703 -100.42089844 95.29345703 C-95.61402545 109.27441487 -95.61402545 109.27441487 -87.42089844 120.29345703 C-86.81503906 120.92638672 -86.20917969 121.55931641 -85.58496094 122.21142578 C-75.85978057 131.5198127 -62.2135769 135.21631126 -48.98339844 135.66845703 C-30.33239283 135.03761419 -13.12610102 127.80690287 0.57910156 115.29345703 C4.00809644 116.70933885 5.55680506 118.26001228 7.60253906 121.32861328 C8.42238281 122.54387695 8.42238281 122.54387695 9.25878906 123.78369141 C9.81824219 124.63253906 10.37769531 125.48138672 10.95410156 126.35595703 C11.50582031 127.17773438 12.05753906 127.99951172 12.62597656 128.84619141 C14.28608012 131.32270739 15.93339403 133.80735711 17.57910156 136.29345703 C18.71653675 138.00087857 19.85452613 139.70793109 20.99316406 141.41455078 C21.85514323 142.70751953 22.7171224 144.00048828 23.57910156 145.29345703 C18.41646583 156.32194467 3.44996741 163.17955017 -7.56542969 167.28173828 C-16.68263746 170.49827741 -25.76249814 173.3402332 -35.42089844 174.29345703 C-36.4225 174.40173828 -37.42410156 174.51001953 -38.45605469 174.62158203 C-65.70049912 177.23925305 -92.89047887 172.3525609 -114.92089844 155.29345703 C-116.44031122 153.98228864 -117.94115146 152.64923233 -119.42089844 151.29345703 C-120.175 150.63087891 -120.92910156 149.96830078 -121.70605469 149.28564453 C-140.60448494 131.71626341 -148.02440315 106.34644515 -149.60839844 81.33251953 C-150.27061392 53.76779999 -140.21574907 27.61895459 -121.29589844 7.60595703 C-89.21227626 -23.04775441 -35.45527064 -27.77657216 0 0 Z M-90.48339844 35.61376953 C-95.97928813 42.98110442 -99.62242809 51.3011053 -101.42089844 60.29345703 C-71.39089844 60.29345703 -41.36089844 60.29345703 -10.42089844 60.29345703 C-11.81263034 47.7678699 -15.77089769 38.79008966 -25.54589844 30.60595703 C-44.89330581 16.25142898 -74.11506102 17.19938994 -90.48339844 35.61376953 Z " fill="#FEFEFE" transform="translate(1031.4208984375,356.70654296875)"/>
<path d="M0 0 C11.86304797 9.44524581 16.83646257 23.89350947 18.80078125 38.4453125 C19.06309852 43.08673052 19.05454995 47.71426539 19.02783203 52.36206055 C19.0272665 53.7232716 19.02758723 55.08448327 19.02871704 56.44569397 C19.02928604 60.10613765 19.01760594 63.76644769 19.00356913 67.42686057 C18.99098546 71.2651829 18.98988529 75.10350898 18.98751831 78.94184875 C18.98132582 86.19470176 18.96494551 93.44749379 18.94481933 100.70032007 C18.9223905 108.96401271 18.91144941 117.22770841 18.90142846 125.49142396 C18.88057706 142.4760947 18.84392904 159.46068154 18.80078125 176.4453125 C3.62078125 176.4453125 -11.55921875 176.4453125 -27.19921875 176.4453125 C-27.20856445 172.74658936 -27.21791016 169.04786621 -27.22753906 165.23706055 C-27.26135635 152.99542577 -27.31673248 140.75396735 -27.38312149 128.51246929 C-27.42283685 121.09286348 -27.45526724 113.67336258 -27.47021484 106.25366211 C-27.4832705 99.78244486 -27.51033408 93.31145917 -27.55383182 86.84037238 C-27.57635944 83.41772612 -27.59213472 79.99536453 -27.5911026 76.57263756 C-27.59347822 72.74037662 -27.62060894 68.90901027 -27.65332031 65.0769043 C-27.64828995 63.95696075 -27.64325958 62.83701721 -27.63807678 61.68313599 C-27.75030615 53.14480881 -29.55730875 45.87994714 -33.94921875 38.5078125 C-41.15848992 31.89931393 -50.9948631 29.9484438 -60.5390625 30.19921875 C-76.54704781 31.68013369 -88.10446051 39.35055426 -99.19921875 50.4453125 C-99.51369911 52.75276851 -99.51369911 52.75276851 -99.47769165 55.4692688 C-99.48885513 56.53220154 -99.50001862 57.59513428 -99.51152039 58.6902771 C-99.51368057 59.8612796 -99.51584076 61.0322821 -99.51806641 62.23876953 C-99.53313484 64.08263245 -99.53313484 64.08263245 -99.54850769 65.96374512 C-99.57415257 69.339589 -99.59097538 72.7152638 -99.60393572 76.09116602 C-99.61953902 79.61729405 -99.64633809 83.14333622 -99.67196655 86.66940308 C-99.71880411 93.34875569 -99.75552404 100.02812436 -99.78863943 106.70755756 C-99.82682574 114.31089794 -99.87624498 121.9141522 -99.92662358 129.51742005 C-100.03001746 145.15999499 -100.11777046 160.80260556 -100.19921875 176.4453125 C-115.37921875 176.4453125 -130.55921875 176.4453125 -146.19921875 176.4453125 C-146.19921875 115.7253125 -146.19921875 55.0053125 -146.19921875 -7.5546875 C-131.01921875 -7.5546875 -115.83921875 -7.5546875 -100.19921875 -7.5546875 C-99.70421875 0.8603125 -99.70421875 0.8603125 -99.19921875 9.4453125 C-97.56984375 8.1253125 -95.94046875 6.8053125 -94.26171875 5.4453125 C-68.03216446 -14.65394871 -27.78489753 -19.64189914 0 0 Z " fill="#FEFEFE" transform="translate(662.19921875,350.5546875)"/>
<path d="M0 0 C15.18 0 30.36 0 46 0 C46 15.84 46 31.68 46 48 C57.88 48 69.76 48 82 48 C82 61.53 82 75.06 82 89 C70.12 89 58.24 89 46 89 C46.06298687 100.98768957 46.13845586 112.97512397 46.23571491 124.96258545 C46.28038428 130.52924137 46.31964813 136.09582468 46.34643555 141.66259766 C46.37250254 147.03790144 46.41292936 152.41292529 46.46318626 157.78805542 C46.47983195 159.83564769 46.4913605 161.88328834 46.49761391 163.93093872 C46.50727989 166.80581802 46.53536936 169.67998486 46.56762695 172.5546875 C46.56619186 173.39554398 46.56475677 174.23640045 46.5632782 175.10273743 C46.65165184 180.69572432 47.64803237 184.90110647 50 190 C53.17812841 192.88920764 55.12044149 193.88598316 59.375 194.4375 C66.75257284 193.54710328 70.86101486 191.43264144 76 186 C76.99 186 77.98 186 79 186 C80.62216953 190.90529463 82.22477537 195.81638963 83.80957031 200.73388672 C84.35143289 202.40587348 84.89860437 204.07614938 85.45117188 205.74462891 C86.24449852 208.14315785 87.01853373 210.54719014 87.7890625 212.953125 C88.16546371 214.0705307 88.16546371 214.0705307 88.54946899 215.21051025 C90.18478296 220.40797342 90.18478296 220.40797342 89.24926758 223.40527344 C83.3143503 230.98136874 72.12734438 234.4181694 63 236 C46.49861263 237.06285589 29.64643991 237.68971126 16 227 C5.15003488 217.13639535 1.06467767 205.39600282 0 191 C-0.32949878 183.11166603 -0.2338247 175.21345776 -0.1953125 167.3203125 C-0.19157515 165.0534579 -0.18873159 162.78660167 -0.18673706 160.51974487 C-0.17915745 154.59824034 -0.15955863 148.67683633 -0.1373291 142.75537109 C-0.11674748 136.69500081 -0.10770918 130.63461403 -0.09765625 124.57421875 C-0.0763066 112.71609491 -0.04117166 100.8580716 0 89 C-9.57 89 -19.14 89 -29 89 C-29 75.47 -29 61.94 -29 48 C-19.43 48 -9.86 48 0 48 C0 32.16 0 16.32 0 0 Z " fill="#FEFEFE" transform="translate(345,295)"/>
<path d="M0 0 C0 15.18 0 30.36 0 46 C-7.59 46 -15.18 46 -23 46 C-34.78256105 48.94564026 -48.91989588 54.37984383 -56 65 C-56.31121985 67.3596845 -56.31121985 67.3596845 -56.2784729 70.03031921 C-56.28963638 71.06938416 -56.30079987 72.1084491 -56.31230164 73.17900085 C-56.31446182 74.31835587 -56.31662201 75.45771088 -56.31884766 76.6315918 C-56.33391609 78.43178268 -56.33391609 78.43178268 -56.34928894 80.26834106 C-56.37490437 83.55941853 -56.39174513 86.85032315 -56.40471697 90.14146018 C-56.42033725 93.58083248 -56.44713096 97.02011712 -56.4727478 100.45942688 C-56.5195552 106.97229042 -56.55628977 113.48517041 -56.58942068 119.99811631 C-56.62762825 127.41285102 -56.67704196 134.82749773 -56.72740483 142.24215829 C-56.83075387 157.49471506 -56.91852513 172.74730832 -57 188 C-72.18 188 -87.36 188 -103 188 C-103 127.28 -103 66.56 -103 4 C-87.82 4 -72.64 4 -57 4 C-56.505 12.91 -56.505 12.91 -56 22 C-54.39125 20.63875 -52.7825 19.2775 -51.125 17.875 C-35.78937463 5.41114142 -19.77330472 0 0 0 Z " fill="#FEFEFE" transform="translate(1178,339)"/>
<path d="M0 0 C15.18 0 30.36 0 46 0 C46 60.72 46 121.44 46 184 C30.82 184 15.64 184 0 184 C0 123.28 0 62.56 0 0 Z " fill="#FEFEFE" transform="translate(449,343)"/>
<path d="M0 0 C6.03006583 3.55181914 11.6228482 9.13756077 14.05859375 15.83203125 C15.80341786 24.40174258 15.35100183 32.3475432 10.921875 39.94921875 C6.34702065 46.54756638 0.37112316 51.028869 -7.5 52.68359375 C-15.40820726 53.93469685 -21.79418476 52.03456523 -28.6875 48.25 C-35.69021372 42.64782902 -39.6578665 36.76046056 -40.78125 27.7421875 C-41.13117177 19.37322516 -38.44412746 12.29861339 -33.25 5.79296875 C-24.74999957 -2.91573705 -11.05005415 -5.07383072 0 0 Z " fill="#FEFEFE" transform="translate(484.5,271)"/>
<path d="M0 0 C0.33 0 0.66 0 1 0 C1 6.27 1 12.54 1 19 C-1.021761 14.95647799 -1.2470882 13.30910727 -1.1875 8.9375 C-1.18105469 7.89464844 -1.17460938 6.85179687 -1.16796875 5.77734375 C-1 3 -1 3 0 0 Z " fill="#FEFEFE" transform="translate(1191,283)"/>
</svg>
