<?xml version="1.0" standalone="no"?>
<!DOCTYPE svg PUBLIC "-//W3C//DTD SVG 20010904//EN"
 "http://www.w3.org/TR/2001/REC-SVG-20010904/DTD/svg10.dtd">
<svg version="1.0" xmlns="http://www.w3.org/2000/svg"
 width="500.000000pt" height="500.000000pt" viewBox="0 0 500.000000 500.000000"
 preserveAspectRatio="xMidYMid meet">

<g transform="translate(0.000000,500.000000) scale(0.100000,-0.100000)"
fill="#000000" stroke="none">
<path d="M807 4984 c-380 -69 -683 -353 -779 -730 l-23 -89 0 -1665 0 -1665
23 -89 c55 -216 186 -414 362 -548 88 -67 245 -142 355 -170 l90 -23 1665 0
1665 0 90 23 c350 88 628 367 717 718 l23 89 0 1665 0 1665 -23 90 c-88 347
-362 623 -713 717 l-84 23 -1645 1 c-1380 2 -1657 0 -1723 -12z m1044 -1251
c299 -401 579 -784 689 -940 37 -54 42 -66 33 -85 -6 -13 -79 -115 -163 -227
-127 -170 -154 -201 -165 -190 -15 16 -573 765 -750 1007 l-120 163 -3 -1285
c-2 -1278 -2 -1286 -22 -1286 -233 -2 -550 1 -550 5 0 3 0 738 0 1635 l0 1629
93 4 c50 1 214 4 362 5 l270 2 326 -437z m2319 -229 c0 -14 -381 -540 -807
-1114 -185 -249 -242 -327 -649 -885 -192 -264 -372 -510 -399 -547 l-50 -67
-393 -3 c-215 -2 -392 -1 -392 1 0 6 182 259 330 461 128 173 324 442 568 780
122 168 815 1139 916 1283 l69 97 404 0 c221 0 403 -3 403 -6z m22 -1456 l-2
-1158 -380 0 -379 0 -241 320 c-132 176 -240 324 -240 329 0 9 307 430 335
460 11 11 36 -19 145 -173 73 -102 134 -186 137 -186 2 0 3 162 3 361 l-1 360
48 67 c26 37 130 180 232 317 101 138 220 299 264 358 44 59 80 107 81 105 0
-2 0 -524 -2 -1160z"/>
</g>
</svg>
