<svg version="1.1" id="Layer_1" xmlns="http://www.w3.org/2000/svg" xmlns:xlink="http://www.w3.org/1999/xlink" x="0px" y="0px"
	 width="100%" viewBox="0 0 1024 1024" enable-background="new 0 0 1024 1024" xml:space="preserve">
<path fill="#000000" opacity="1.000000" stroke="none" 
	d="
M776.252686,530.177124 
	C776.649048,555.142517 776.430054,579.655212 777.577209,604.103760 
	C778.452209,622.750793 778.218689,641.395264 778.788513,660.035034 
	C779.475342,682.504822 778.373230,705.064026 770.026672,726.318298 
	C756.944519,759.631470 733.831116,781.608582 697.204895,786.068115 
	C676.373230,788.604553 656.469849,783.909058 637.872131,774.144287 
	C613.835510,761.523743 593.967773,743.524597 574.660706,724.831238 
	C551.923706,702.816833 529.140320,680.849365 506.533325,658.702026 
	C483.447388,636.085571 460.619293,613.205933 437.542603,590.579956 
	C426.126892,579.387329 414.230743,568.682495 402.885468,557.420959 
	C395.467072,550.057312 390.046356,541.442871 388.193634,530.753662 
	C386.725525,522.283447 388.041687,514.504089 392.427979,507.339417 
	C403.839722,488.699249 426.944427,481.889099 447.563873,490.638580 
	C458.894073,495.446381 467.698425,503.631042 476.304810,511.934540 
	C495.246124,530.209290 513.891907,548.791809 532.566162,567.341553 
	C567.307068,601.851013 602.011719,636.397156 636.663940,670.995544 
	C645.425781,679.743835 654.812500,687.650024 665.348999,694.185669 
	C670.824890,697.582336 676.809448,699.502441 683.094543,700.456970 
	C688.783875,701.320984 695.374268,697.407837 698.561951,691.365845 
	C703.270813,682.440796 704.275391,672.581299 704.534485,662.806946 
	C705.250122,635.813477 703.712402,608.847717 702.835144,581.874329 
	C702.467346,570.565735 703.069763,559.213623 702.415955,547.928589 
	C700.826965,520.503235 701.360413,493.023468 699.799500,465.594482 
	C698.788574,447.831940 698.198120,430.027679 698.565674,412.208649 
	C698.836670,399.069214 698.174500,385.943542 696.044800,372.954926 
	C693.922668,360.012054 683.409851,355.870575 672.885010,363.789551 
	C660.429443,373.161224 650.481262,385.139801 639.623657,396.169006 
	C632.483826,403.421814 625.436279,410.712677 615.654236,414.584686 
	C598.046814,421.554199 579.195312,414.099152 572.164612,396.621704 
	C568.438110,387.358032 568.833984,377.774780 573.593079,368.712372 
	C581.342529,353.955780 592.132751,341.450989 603.511414,329.505219 
	C618.507874,313.761475 634.751404,299.491119 654.703003,290.120056 
	C676.667480,279.803558 699.329285,276.693085 722.535583,285.023285 
	C742.537964,292.203430 754.903992,307.376526 762.214783,326.733368 
	C767.279175,340.142456 769.035339,354.326141 770.506531,368.561188 
	C771.964233,382.666290 771.883545,396.793701 772.449158,410.917847 
	C773.941650,448.186157 775.128662,485.456451 775.455933,522.753906 
	C775.476196,525.070312 775.957825,527.382690 776.252686,530.177124 
M403.819641,498.308716 
	C388.763153,511.710327 386.231506,525.556030 395.542267,543.351685 
	C399.001190,549.962830 403.998016,555.418091 409.423920,560.288330 
	C430.887848,579.554382 450.877838,600.337158 471.607910,620.352722 
	C507.322449,654.836487 542.085144,690.299377 578.059509,724.522705 
	C592.912598,738.652771 607.890930,752.653992 625.274597,763.710754 
	C647.208008,777.661438 670.354675,787.139648 697.243958,783.749146 
	C717.653687,781.175659 734.781006,772.417542 748.444458,757.306580 
	C769.241272,734.306580 775.562134,706.039673 776.603210,676.109375 
	C777.431641,652.292480 775.837646,628.490295 775.235535,604.700317 
	C774.713318,584.065491 774.822998,563.414795 773.986450,542.769470 
	C772.942505,517.005127 772.770691,491.194550 771.752258,465.410889 
	C770.419128,431.657349 770.794922,397.841705 767.568359,364.154999 
	C766.392151,351.875122 764.719177,339.675446 760.198059,328.248077 
	C751.763733,306.929596 737.803528,291.138000 714.597656,285.000610 
	C693.613953,279.450958 673.837646,283.240234 655.168457,292.832428 
	C622.441711,309.647339 598.246460,335.793213 578.200439,366.053436 
	C572.215515,375.087891 570.146545,385.085266 574.565247,395.512970 
	C582.302063,413.771301 602.920044,419.824554 620.082764,409.321472 
	C630.820740,402.750214 638.411743,392.941498 647.075012,384.226349 
	C654.939209,376.315033 662.275208,367.827057 671.426025,361.315033 
	C682.698669,353.293091 693.710205,356.722992 698.489136,369.477295 
	C700.394958,374.563721 700.015625,379.966248 700.277466,385.136597 
	C700.831970,396.086090 700.494324,407.073456 701.018738,418.064056 
	C701.922913,437.014526 701.975281,456.004333 702.497253,474.974579 
	C703.421875,508.578644 704.484375,542.178894 705.385071,575.783569 
	C705.982910,598.087769 706.499878,620.395264 706.859985,642.704407 
	C707.079773,656.321533 707.167358,669.938049 704.270325,683.394958 
	C700.936584,698.879944 692.123962,704.764648 676.720032,701.427307 
	C667.671570,699.466919 660.208130,694.472351 653.092834,688.912476 
	C635.696350,675.318909 621.125305,658.755127 605.475525,643.329041 
	C564.420593,602.861206 523.451050,562.306580 482.381927,521.853149 
	C473.727844,513.328735 465.263062,504.567566 455.097931,497.724701 
	C438.454193,486.520477 419.209778,486.542572 403.819641,498.308716 
z"/>
<path fill="#000000" opacity="1.000000" stroke="none" 
	d="
M288.138123,307.148560 
	C311.812347,284.237061 339.658905,275.522522 371.696747,281.257660 
	C398.278351,286.016052 420.326447,299.920776 440.091003,317.551544 
	C470.315491,344.513031 498.210022,373.897919 527.098572,402.249268 
	C557.531860,432.116791 587.998047,461.950989 618.478394,491.770538 
	C627.601624,500.695984 636.161743,510.040222 639.552002,522.772278 
	C644.385437,540.924011 634.589233,560.690308 617.307983,568.230530 
	C600.614197,575.514404 585.799316,571.223389 572.076599,560.772461 
	C559.299988,551.042053 548.593811,539.073792 537.124390,527.939880 
	C513.344849,504.856201 489.640900,481.693878 466.016235,458.451721 
	C444.992126,437.768036 424.240997,416.805695 403.121918,396.220215 
	C392.988129,386.342499 383.287720,375.984283 372.282715,367.022156 
	C367.562439,363.178131 362.363220,359.922882 356.199066,359.612274 
	C345.984131,359.097534 339.337128,365.744934 338.417633,376.485413 
	C335.829834,406.712524 336.847748,437.016205 336.284332,467.289093 
	C335.434723,512.939087 335.221313,558.586853 335.459076,604.238647 
	C335.564911,624.554626 335.944672,644.871399 336.455444,665.181458 
	C336.588684,670.480103 337.785797,675.797119 339.785522,680.714111 
	C343.195709,689.099121 352.266449,691.400208 361.283539,686.570679 
	C369.411774,682.217285 376.514618,676.424133 383.696960,670.734192 
	C389.958160,665.773987 395.817108,660.283569 402.637115,656.055969 
	C415.315857,648.196716 428.567474,643.526794 443.809998,647.691895 
	C461.329498,652.479065 471.622589,669.939941 467.435669,687.594604 
	C463.913574,702.445862 455.171326,714.150940 445.353851,725.071411 
	C427.035797,745.447510 405.429688,761.401062 379.345886,770.497803 
	C340.014252,784.214661 298.768921,773.709900 274.334137,737.747742 
	C265.183350,724.280029 260.334595,709.119202 258.662354,692.982117 
	C255.081711,658.429077 257.106903,623.762451 257.087311,589.156616 
	C257.065735,551.019653 258.178650,512.877869 259.141052,474.746796 
	C259.468994,461.754364 258.963959,448.729645 259.828613,435.784668 
	C261.149750,416.005859 259.907867,396.155670 261.716248,376.429626 
	C263.832764,353.342804 268.218384,330.896484 283.622528,312.289825 
	C285.001495,310.624146 286.467590,309.030579 288.138123,307.148560 
M334.612946,423.441589 
	C334.614960,412.942200 334.601868,402.442749 334.624359,391.943390 
	C334.639282,384.968811 335.424622,378.056915 336.817078,371.239471 
	C338.743591,361.807373 347.788574,355.901337 357.286438,357.277039 
	C365.071167,358.404572 371.301666,362.308594 376.979858,367.351471 
	C396.052551,384.290192 413.537781,402.873901 431.842133,420.608185 
	C469.536438,457.128510 506.560699,494.339569 544.132812,530.987366 
	C555.667908,542.238708 566.474915,554.384888 580.345520,563.074707 
	C595.250549,572.412476 611.841736,571.464417 625.105591,559.902710 
	C636.322876,550.124939 640.925720,537.950623 636.919800,523.232239 
	C633.734680,511.529358 625.830688,502.799133 617.561829,494.570740 
	C600.321289,477.414551 582.668762,460.673126 565.332458,443.612030 
	C530.419617,409.253265 495.657318,374.741394 460.727142,340.400299 
	C443.968994,323.924774 427.000702,307.737549 406.012146,296.406433 
	C380.349579,282.551910 353.819031,276.593353 325.440979,286.578247 
	C302.635040,294.602661 285.399628,309.017975 274.892944,331.310120 
	C266.445129,349.233978 264.176758,368.315704 263.499817,387.597504 
	C262.097504,427.541718 261.288757,467.508270 260.449036,507.470123 
	C259.945038,531.455688 260.161285,555.447144 259.608521,579.442261 
	C258.867981,611.590332 259.144653,643.770081 259.474823,675.931274 
	C259.662445,694.210815 263.010101,711.940796 271.753326,728.347290 
	C289.996338,762.579895 326.395721,780.905518 365.971466,771.611267 
	C400.992767,763.386658 427.992828,742.615540 450.189636,715.022522 
	C457.036438,706.511169 462.570892,697.267273 465.107941,686.481812 
	C468.407837,672.453247 460.795441,657.884949 447.625977,651.976440 
	C433.352386,645.572632 420.277008,649.021606 407.630280,656.196167 
	C396.997864,662.228027 388.202545,670.780579 378.544800,678.153076 
	C372.063843,683.100525 365.622498,688.150208 357.610046,690.543457 
	C347.432007,693.583740 339.772949,689.504822 336.696381,679.341797 
	C334.710205,672.780701 333.865051,665.933960 333.714111,659.210510 
	C333.123627,632.908203 332.902191,606.593750 332.870819,580.283447 
	C332.808868,528.323059 333.396301,476.367279 334.612946,423.441589 
z"/>
</svg>