<?xml version="1.0" encoding="UTF-8"?>
<svg version="1.1" xmlns="http://www.w3.org/2000/svg" width="2424" height="608">
<path d="M0 0 C0.91712245 -0.00465992 1.83424491 -0.00931984 2.77915895 -0.01412097 C5.84502907 -0.02604922 8.91045426 -0.01668377 11.9763279 -0.00736332 C14.19952591 -0.01153717 16.42272179 -0.01701497 18.64591372 -0.02368313 C24.74983355 -0.03814959 30.8536185 -0.03388919 36.95754576 -0.02651632 C42.86606681 -0.02227549 48.77455378 -0.03209382 54.68306653 -0.04142394 C67.51254249 -0.06108323 80.34197804 -0.06343967 93.17146547 -0.05822874 C104.40005126 -0.05367034 115.62862106 -0.05427227 126.85720634 -0.06006908 C128.36379659 -0.06082595 129.87038684 -0.06158193 131.37697709 -0.06233703 C133.64731737 -0.06348223 135.91765765 -0.06463211 138.18799792 -0.06579627 C159.29380038 -0.07650029 180.39959752 -0.08122754 201.50540161 -0.07332611 C202.69863681 -0.07288035 202.69863681 -0.07288035 203.91597777 -0.07242559 C210.37578105 -0.06997669 216.83558426 -0.06736508 223.29538746 -0.06474145 C248.49176344 -0.05463941 273.68807278 -0.06299401 298.88443947 -0.086236 C327.19891219 -0.11231204 355.51334478 -0.12515561 383.82782996 -0.11804825 C386.84729615 -0.1173322 389.86676235 -0.11665781 392.88622856 -0.1160078 C393.62968651 -0.115838 394.37314447 -0.11566819 395.13913145 -0.11549323 C406.35843202 -0.11319093 417.57769532 -0.12116397 428.79698753 -0.13429928 C441.55740619 -0.14921235 454.31773753 -0.15005126 467.07815431 -0.13222837 C473.58884471 -0.12370333 480.0993684 -0.12160578 486.6100502 -0.13687992 C492.57120509 -0.15069177 498.53204988 -0.14600857 504.49318667 -0.12664068 C506.64854906 -0.12286965 508.80393609 -0.12583428 510.9592766 -0.13625234 C527.83379753 -0.21201072 540.46258448 1.78214033 553.25553322 13.69281673 C561.42790762 22.3002944 564.97993209 33.18066944 564.88584995 44.85916615 C564.89050987 45.77460023 564.89516979 46.6900343 564.89997092 47.63320881 C564.91189887 50.69333581 564.90253384 53.75301702 564.89321327 56.81314754 C564.89738714 59.03222076 564.90286495 61.25129184 564.90953308 63.47035897 C564.92399936 69.56287731 564.91973919 75.65526051 564.91236627 81.74778628 C564.90812541 87.6452953 564.91794381 93.54277017 564.92727389 99.44027087 C564.94693308 112.24581863 564.94928964 125.05132589 564.94407869 137.85688513 C564.93952027 149.06453155 564.94012224 160.27216195 564.94591904 171.47980785 C564.94667591 172.98359471 564.94743189 174.48738156 564.94818698 175.99116842 C564.94933218 178.25728479 564.95048206 180.52340117 564.95164622 182.78951754 C564.96235023 203.85602416 564.96707751 224.92252544 564.95917606 245.9890337 C564.9587303 247.18004461 564.9587303 247.18004461 564.95827554 248.39511635 C564.95582664 254.84287596 564.95321504 261.29063551 564.9505914 267.73839506 C564.94048937 292.88777843 564.94884396 318.03709502 564.97208595 343.18646908 C564.99816206 371.4482041 565.01100554 399.70989893 565.0038982 427.97164643 C565.00318215 430.98549564 565.00250776 433.99934486 565.00185776 437.01319408 C565.00168795 437.75526889 565.00151814 438.49734369 565.00134318 439.26190561 C564.99904089 450.46027463 565.00701387 461.65860632 565.02014923 472.85696697 C565.03506239 485.59359711 565.03590109 498.33013977 565.01807832 511.06676804 C565.00955335 517.56530695 565.00745556 524.06367883 565.02272987 530.56220913 C565.03654192 536.51226169 565.03185826 542.46200356 565.01249064 548.41203798 C565.00871967 550.56336272 565.01168405 552.71471213 565.02210229 554.86601494 C565.08924325 569.79283296 563.99631965 581.23395746 554.50553322 593.38031673 C554.02729103 593.99648861 553.54904884 594.61266048 553.05631447 595.24750423 C547.38893803 601.67148257 537.91882998 606.64600125 529.50553322 608.38031673 C526.53980525 608.47818614 523.59764493 608.52150776 520.6318922 608.51733112 C519.72113817 608.51998295 518.81038413 608.52263478 517.87203148 608.52536696 C514.79783383 608.53307108 511.72367605 608.53361956 508.64946938 608.53421688 C506.43201398 608.53823078 504.21455931 608.54266888 501.99710554 608.54749644 C495.88579317 608.55947604 489.7744887 608.56511361 483.66316688 608.56967759 C477.75443514 608.57501778 471.8457123 608.58499546 465.93698637 608.59468705 C450.10249076 608.62031673 434.26799031 608.63535316 418.43347991 608.64819752 C413.18824107 608.65245252 407.94300257 608.65701825 402.69776416 608.66178083 C374.80516131 608.68704262 346.91255787 608.70908951 319.0199461 608.72150898 C312.55737811 608.72443028 306.09481015 608.72739781 299.6322422 608.73041439 C298.8293534 608.7307853 298.02646461 608.73115621 297.19924584 608.73153836 C271.17433674 608.74369079 245.14949532 608.77462964 219.12461799 608.81633591 C192.36684578 608.85913843 165.60910931 608.88575192 138.85130194 608.89098369 C135.07062958 608.89172412 131.28995727 608.8926348 127.50928497 608.89364147 C126.76522936 608.89383209 126.02117376 608.8940227 125.25457101 608.89421909 C113.28850754 608.89773032 101.32252892 608.91801742 89.35649659 608.94443811 C77.32346685 608.97060563 65.29053498 608.97830051 53.25748087 608.96733682 C46.74047671 608.96189259 40.22368871 608.96505289 33.70671844 608.98980236 C27.73719859 609.01228344 21.76814187 609.01156315 15.79861396 608.99259849 C13.64238632 608.98979694 11.48612735 608.99540548 9.3299501 609.01041143 C-7.24057751 609.11865584 -20.05677368 607.54713449 -32.49446678 595.38031673 C-41.54512748 585.31316714 -44.81992107 574.34215627 -44.74894238 560.99517155 C-44.75214885 560.08986771 -44.75535533 559.18456387 -44.75865898 558.25182658 C-44.76694296 555.22624222 -44.76104026 552.20085664 -44.75516319 549.17526913 C-44.7581846 546.98094613 -44.76207403 544.78662419 -44.76675576 542.59230411 C-44.7770458 536.5682196 -44.77485135 530.54419453 -44.77057517 524.52010512 C-44.76810979 518.02100814 -44.77711975 511.52192555 -44.78461266 505.02283382 C-44.79778991 492.29280245 -44.79915829 479.56278991 -44.79681239 466.83275308 C-44.79497903 456.48647228 -44.79674026 446.14019768 -44.80103683 435.79391766 C-44.80163924 434.30695117 -44.80224044 432.81998469 -44.80284044 431.33301821 C-44.8037477 429.09224525 -44.80465637 426.85147229 -44.80557279 424.61069933 C-44.81400111 403.77996871 -44.81833883 382.94924042 -44.81416607 362.11850834 C-44.81400969 361.33339823 -44.81385332 360.54828812 -44.8136922 359.73938679 C-44.81288643 355.76022759 -44.81204066 351.78106841 -44.8111789 347.80190922 C-44.81100781 347.01164955 -44.81083672 346.22138988 -44.81066045 345.40718294 C-44.8103138 343.8090866 -44.80996527 342.21099027 -44.80961487 340.61289393 C-44.80425744 315.74547787 -44.81218917 290.87809727 -44.83064842 266.01068783 C-44.85136817 238.0653837 -44.86209122 210.12010155 -44.85807294 182.17478931 C-44.8576776 179.19464199 -44.85731605 176.21449467 -44.85697556 173.23434734 C-44.85688482 172.50057144 -44.85679409 171.76679554 -44.85670061 171.01078401 C-44.85553507 159.93801041 -44.86217961 148.86525901 -44.87278748 137.79249096 C-44.88484036 125.19860486 -44.8861192 112.60477112 -44.87399731 100.01088418 C-44.86810057 93.58527947 -44.8670313 87.15977027 -44.87899971 80.73417187 C-44.88983088 74.85078284 -44.88678795 68.96756941 -44.87273803 63.08418868 C-44.8700835 60.95708908 -44.87248128 58.82997583 -44.88047389 56.70288958 C-44.94254407 38.95028316 -43.2855741 24.97898589 -30.72884178 11.45453548 C-22.04785789 3.39578995 -11.66389398 -0.09378459 0 0 Z " fill="#007BB6" transform="translate(1837.4944667816162,-0.38031673431396484)"/>
<path d="M0 0 C30.36 0 60.72 0 92 0 C92 141.57 92 283.14 92 429 C64.28 429 36.56 429 8 429 C7.67 416.79 7.34 404.58 7 392 C4.69 394.97 2.38 397.94 0 401 C-19.81674219 422.90271506 -48.86144155 435.10828207 -78 437 C-78.91136719 437.05929687 -79.82273437 437.11859375 -80.76171875 437.1796875 C-83.530814 437.25793509 -86.23341551 437.16053021 -89 437 C-90.07362793 436.9383667 -90.07362793 436.9383667 -91.16894531 436.87548828 C-120.78272634 435.01496771 -149.5737494 426.74749874 -173 408 C-173.55574707 407.55640137 -174.11149414 407.11280273 -174.68408203 406.65576172 C-182.79310031 400.12294356 -189.74179989 393.38086447 -196 385 C-196.65097656 384.18660156 -197.30195312 383.37320312 -197.97265625 382.53515625 C-224.06476398 348.8695938 -230.82891606 302.55312368 -226.22802734 261.22558594 C-221.8537674 228.22805656 -209.45095034 197.53885246 -188 172 C-187.37480469 171.23945313 -186.74960938 170.47890625 -186.10546875 169.6953125 C-180.99597134 163.68046627 -175.2571302 158.79006295 -169 154 C-167.84757812 153.10667969 -167.84757812 153.10667969 -166.671875 152.1953125 C-137.33146752 130.53929745 -101.16911724 125.42459847 -65.72314453 130.66015625 C-39.88946149 134.80924479 -18.21302582 144.91813655 -1 165 C-0.67 110.55 -0.34 56.1 0 0 Z M-115.6875 228.66796875 C-129.97385791 243.07498847 -135.76677351 261.97814496 -136.25 281.9375 C-136.06313161 302.80447073 -129.87110471 322.25561905 -115.4140625 337.6796875 C-100.46901089 352.04434875 -81.01411432 356.67354582 -60.86450195 356.46801758 C-42.55057829 355.91551105 -24.72781087 349.84785413 -11.46484375 336.82421875 C3.71889651 319.42668435 9.27224141 297.58134434 7.7890625 274.80859375 C6.04199214 255.63960765 -1.49056244 237.8997688 -16 225 C-44.32422514 201.97169091 -89.2930932 203.7994886 -115.6875 228.66796875 Z " fill="#FEFEFE" transform="translate(1612,89)"/>
<path d="M0 0 C30.03 0 60.06 0 91 0 C91.33 83.82 91.66 167.64 92 254 C96.29 249.05 100.58 244.1 105 239 C108.69140625 234.74609375 108.69140625 234.74609375 110.15527344 233.05932617 C115.38136395 227.03626593 120.57755062 220.98889951 125.75537109 214.92431641 C128.68262923 211.50609717 131.65809681 208.14116832 134.6875 204.8125 C137.71712868 201.47772886 140.60608092 198.06712361 143.4375 194.5625 C147.29825137 189.788597 151.37437075 185.26611572 155.53125 180.75 C157.94378104 178.06262366 160.2325621 175.31034556 162.5 172.5 C165.55348679 168.71539666 168.70668301 165.07792463 172 161.5 C176.10953207 157.03311732 179.99501643 152.43368185 183.796875 147.703125 C184.52390625 146.81109375 185.2509375 145.9190625 186 145 C186.37694315 144.41679458 186.7538863 143.83358915 187.14225197 143.23271084 C189.20792316 140.31305903 190.80476809 138.32522678 194.33414841 137.36487007 C197.23215081 137.13796526 200.05623026 137.13401619 202.96240234 137.20532227 C204.05567841 137.20430008 205.14895447 137.20327789 206.27536011 137.20222473 C209.87988396 137.20709178 213.4818576 137.26149743 217.0859375 137.31640625 C219.58841569 137.32946543 222.09091181 137.33942808 224.59341431 137.34642029 C230.50100883 137.37039258 236.40778859 137.42552791 242.31496489 137.49586672 C249.70330378 137.58192402 257.09175668 137.61941069 264.48046875 137.65820312 C277.65410833 137.73322819 290.82699638 137.85131823 304 138 C302.38182825 141.40829937 300.52234036 143.79530758 297.9375 146.5625 C294.74614188 150.03798539 291.69544474 153.56411074 288.75 157.25 C284.6504808 162.32423006 280.26629138 167.0623033 275.79785156 171.80761719 C272.55481169 175.27026747 269.46585125 178.79268593 266.5 182.5 C261.93958074 188.19631705 256.98265337 193.47319066 251.99609375 198.79296875 C247.61883286 203.4639332 243.4485711 208.29747541 239.30078125 213.171875 C238.28418244 214.36486315 237.26724412 215.55756205 236.25 216.75 C235.477771 217.65552612 235.477771 217.65552612 234.68994141 218.5793457 C230.86787748 223.03960984 226.92778734 227.37267114 222.93017578 231.67529297 C220.03251776 234.81503117 217.29653427 238.04166489 214.625 241.375 C211.0926962 245.76822372 207.35979829 249.89785262 203.5 254 C199.46460238 258.31118122 195.46551988 262.63841136 191.625 267.125 C190.89539063 267.97320312 190.16578125 268.82140625 189.4140625 269.6953125 C187.77401641 271.82622292 187.77401641 271.82622292 188.24926758 273.90600586 C189.08094503 276.22577741 190.12293361 277.83577121 191.59765625 279.80859375 C192.14389648 280.54505127 192.69013672 281.28150879 193.25292969 282.0402832 C193.85008789 282.83136475 194.44724609 283.62244629 195.0625 284.4375 C195.9911084 285.68309692 195.9911084 285.68309692 196.93847656 286.95385742 C202.34213929 294.18189705 207.83012503 301.34626045 213.31665039 308.51147461 C217.36344004 313.80879545 221.30313637 319.15969871 225.13378906 324.61450195 C228.95235282 330.01411562 232.97682516 335.25191667 237 340.5 C241.84816864 346.82562047 246.62305756 353.17875473 251.21191406 359.69458008 C255.41521477 365.63942178 259.80555292 371.4414988 264.18505859 377.25708008 C268.55442198 383.06259317 272.88555491 388.89437524 277.1875 394.75 C282.5108514 401.99359239 287.87776752 409.20273022 293.28125 416.38671875 C293.71824219 416.9698584 294.15523437 417.55299805 294.60546875 418.15380859 C295.61996164 419.49687499 296.64481508 420.83213461 297.67578125 422.16259766 C298.22621094 422.87851074 298.77664063 423.59442383 299.34375 424.33203125 C299.85099609 424.98534424 300.35824219 425.63865723 300.88085938 426.31176758 C302 428 302 428 302 430 C287.51500621 431.03807435 273.03500991 431.80825549 258.52013874 432.27973557 C251.77337916 432.50482186 245.05336016 432.81507824 238.32104492 433.31933594 C196.18956446 436.39186393 196.18956446 436.39186393 184.30837631 428.12782288 C173.30557982 418.23942896 166.75923308 404.44922507 160.55557251 391.26257324 C157.46405692 384.73321492 153.61505117 378.99642227 149.38671875 373.140625 C148.23667988 371.45197999 147.09189381 369.75974216 145.953125 368.06347656 C144.86458662 366.45898215 143.7760449 364.85449 142.6875 363.25 C140.26315878 359.66745355 137.84060463 356.08369979 135.41796875 352.5 C134.8495224 351.65963196 134.28107605 350.81926392 133.69540405 349.95343018 C129.26760504 343.40491358 124.87542504 336.8336355 120.5 330.25 C111.07678353 316.1151753 101.52765748 302.06463724 92 288 C91.67 334.86 91.34 381.72 91 430 C60.97 430 30.94 430 0 430 C0 288.1 0 146.2 0 0 Z " fill="#FEFEFE" transform="translate(776,89)"/>
<path d="M0 0 C0.68046387 0.15952148 1.36092773 0.31904297 2.06201172 0.48339844 C34.40623793 8.35601785 61.43257742 28.68384384 78.82714844 57.02197266 C87.298395 71.3088252 92.80632322 86.4717696 96.75 102.5625 C96.94875732 103.36389404 97.14751465 104.16528809 97.35229492 104.9909668 C103.07060608 129.59220514 101 153.49006129 101 179 C-1.96 179.495 -1.96 179.495 -107 180 C-100.56966664 199.29100008 -92.30415497 215.64869793 -73.96484375 225.65625 C-56.44378675 234.17662099 -36.17447949 236.29713465 -17.41015625 230.3125 C-0.03690404 223.62588746 11.72488583 213.58383842 23 199 C28.2772868 200.63995367 32.27492767 203.96706033 36.625 207.25 C38.33582956 208.52618638 40.04677014 209.80222394 41.7578125 211.078125 C42.62954102 211.73103516 43.50126953 212.38394531 44.39941406 213.05664062 C48.41726816 216.05909262 52.45916336 219.02859822 56.5 222 C58.06256824 223.15225121 59.62506782 224.30459555 61.1875 225.45703125 C64.5573763 227.94064676 67.93333105 230.41576303 71.3125 232.88671875 C72.18068359 233.52287109 73.04886719 234.15902344 73.94335938 234.81445312 C75.60978587 236.03531104 77.2776855 237.2541615 78.94726562 238.47070312 C79.69685547 239.02048828 80.44644531 239.57027344 81.21875 240.13671875 C81.87810547 240.61842529 82.53746094 241.10013184 83.21679688 241.59643555 C84.94991992 242.96058182 86.47675602 244.40759792 88 246 C63.50357423 278.15551497 25.56233214 297.11617839 -14 303 C-58.1529178 308.87823911 -104.71908159 297.98558964 -141 272 C-169.22264799 250.40024805 -188.18417925 220.69233201 -196 186 C-196.17644043 185.22462891 -196.35288086 184.44925781 -196.53466797 183.65039062 C-205.00593224 144.2577524 -197.91524167 100.61701021 -176.359375 66.578125 C-154.56802027 33.15514105 -119.91466467 9.76244962 -81 1 C-54.30971819 -4.47303319 -26.73371327 -6.34624341 0 0 Z M-93.8671875 82.37109375 C-101.6131035 91.91871548 -108 104.4385728 -108 117 C-69.06 117 -30.12 117 10 117 C10 103.64715997 6.9489254 93.70921159 -1 83 C-1.70962891 82.01580078 -1.70962891 82.01580078 -2.43359375 81.01171875 C-11.07408819 69.97244682 -24.67791513 64.12169756 -38.2734375 62.27734375 C-58.87354303 60.18191754 -79.5689746 67.22728762 -93.8671875 82.37109375 Z " fill="#FEFEFE" transform="translate(1259,222)"/>
<path d="M0 0 C25.03827325 23.71822823 33.45333453 58.17152502 34.45925522 91.76808548 C34.73138561 103.80115158 34.65231681 115.84015316 34.60105681 127.87522817 C34.58205076 133.10548144 34.58052103 138.3357423 34.57698059 143.56602478 C34.56772931 153.42858799 34.54321127 163.29104909 34.51293212 173.15356773 C34.47283285 186.5102591 34.45687721 199.86697923 34.43942547 213.22371578 C34.41138352 234.2078138 34.35156853 255.19169653 34.296875 276.17578125 C4.266875 276.17578125 -25.763125 276.17578125 -56.703125 276.17578125 C-56.74050781 264.48527344 -56.77789063 252.79476563 -56.81640625 240.75 C-56.84670372 233.31704571 -56.87774363 225.88410663 -56.91210938 218.45117188 C-56.96644664 206.66904117 -57.0178656 194.88695262 -57.04956055 183.10473633 C-57.07266521 174.52105723 -57.10620015 165.93749022 -57.15182656 157.35390025 C-57.17559213 152.81657696 -57.19442927 148.27936352 -57.20073891 143.7419796 C-56.17825504 105.53656789 -56.17825504 105.53656789 -70.703125 71.17578125 C-79.1921457 62.83033806 -90.04643448 59.74074449 -101.703125 59.17578125 C-115.62740528 59.42028406 -129.28902221 62.29993546 -139.703125 72.17578125 C-155.26843656 88.96117661 -155.99145268 113.9075659 -156.02197266 135.51782227 C-156.03130517 137.06711328 -156.04147856 138.61639941 -156.05241394 140.16567993 C-156.07935428 144.31122502 -156.09475449 148.45673687 -156.10784197 152.60234571 C-156.12363275 156.95717953 -156.1503707 161.31194695 -156.1758728 165.66673279 C-156.22238165 173.88618734 -156.25925935 182.10565478 -156.29254568 190.32517236 C-156.33817118 201.45125272 -156.39894066 212.57725017 -156.45879364 223.70326138 C-156.55249284 241.19405946 -156.62618853 258.68488278 -156.703125 276.17578125 C-186.733125 276.17578125 -216.763125 276.17578125 -247.703125 276.17578125 C-247.703125 180.14578125 -247.703125 84.11578125 -247.703125 -14.82421875 C-218.663125 -14.82421875 -189.623125 -14.82421875 -159.703125 -14.82421875 C-159.373125 -2.61421875 -159.043125 9.59578125 -158.703125 22.17578125 C-155.238125 17.22578125 -155.238125 17.22578125 -151.703125 12.17578125 C-137.48251155 -6.90065143 -113.85028773 -17.1678369 -91.015625 -21.13671875 C-60.57066984 -24.75531914 -24.10345605 -20.82765078 0 0 Z " fill="#FEFEFE" transform="translate(696.703125,241.82421875)"/>
<path d="M0 0 C0.77285339 0.00465271 1.54570679 0.00930542 2.34197998 0.01409912 C30.8237135 0.21530272 55.95950401 6.4883342 77.3125 26.4375 C91.67824592 41.25373969 98.33277693 60.6736495 102.8125 80.375 C103.14894531 81.83292969 103.14894531 81.83292969 103.4921875 83.3203125 C106.66315278 98.88243439 107.10952883 114.89611072 107.03955078 130.71972656 C107.03898457 132.55516555 107.03930731 134.39060498 107.04043579 136.2260437 C107.04100212 141.13796703 107.02936657 146.04978971 107.01528788 150.96168995 C107.0026584 156.12124412 107.0016005 161.28080141 106.99923706 166.44036865 C106.99305778 176.1791155 106.97669581 185.91781664 106.95653808 195.65654349 C106.92985365 208.83883313 106.91917769 222.02113554 106.90753365 235.20344543 C106.88881205 255.92733109 106.84894293 276.65112037 106.8125 297.375 C77.1125 297.375 47.4125 297.375 16.8125 297.375 C16.76351562 286.04542969 16.71453125 274.71585937 16.6640625 263.04296875 C16.6286503 255.83788327 16.59275356 248.63280552 16.5546875 241.42773438 C16.49444225 230.00774955 16.43609696 218.5877791 16.390625 207.16772461 C16.35748771 198.84775613 16.31753997 190.52785167 16.26970994 182.20795423 C16.24465884 177.81037909 16.22281694 173.41284523 16.20915604 169.01521873 C17.91763003 127.5220706 17.91763003 127.5220706 0.96875 91.421875 C-7.8742811 83.07012341 -18.9773198 79.97190238 -30.9375 80.0625 C-31.72390869 80.06813965 -32.51031738 80.0737793 -33.32055664 80.07958984 C-46.19477966 80.34563517 -57.79224415 84.14547833 -67.4375 92.9375 C-83.09590504 109.94355466 -83.30670125 133.46381297 -83.39282227 155.24121094 C-83.40242433 156.79961391 -83.41243568 158.3580144 -83.42282104 159.91641235 C-83.44962432 164.10976688 -83.47076533 168.30313237 -83.49082303 172.49652386 C-83.51283603 176.89274227 -83.54014909 181.28892782 -83.56687927 185.68511963 C-83.61660072 193.99328786 -83.66161493 202.30147453 -83.70490164 210.60967851 C-83.76373164 221.84832336 -83.82990684 233.08692487 -83.89565182 244.32553101 C-83.99890468 262.00865804 -84.0924074 279.69182284 -84.1875 297.375 C-114.2175 297.375 -144.2475 297.375 -175.1875 297.375 C-175.1875 201.675 -175.1875 105.975 -175.1875 7.375 C-146.4775 7.375 -117.7675 7.375 -88.1875 7.375 C-88.1875 20.245 -88.1875 33.115 -88.1875 46.375 C-87.5275 46.375 -86.8675 46.375 -86.1875 46.375 C-85.92582031 45.64152344 -85.66414063 44.90804687 -85.39453125 44.15234375 C-84.17091624 41.33684126 -82.79250348 39.32268725 -80.875 36.9375 C-80.30136719 36.21691406 -79.72773438 35.49632812 -79.13671875 34.75390625 C-78.49347656 33.96886719 -77.85023438 33.18382812 -77.1875 32.375 C-76.41792969 31.40175781 -75.64835937 30.42851562 -74.85546875 29.42578125 C-63.64980757 16.05401722 -46.73786092 7.71289352 -30.1875 3.375 C-29.24302002 3.10840576 -28.29854004 2.84181152 -27.32543945 2.56713867 C-18.13197632 0.16439643 -9.42754784 -0.10084966 0 0 Z " fill="#FEFEFE" transform="translate(2205.1875,220.625)"/>
<path d="M0 0 C31.02 0 62.04 0 94 0 C94 112.86 94 225.72 94 342 C151.42 342 208.84 342 268 342 C268 371.04 268 400.08 268 430 C179.56 430 91.12 430 0 430 C0 288.1 0 146.2 0 0 Z " fill="#FEFEFE" transform="translate(0,89)"/>
<path d="M0 0 C30.03 0 60.06 0 91 0 C91 96.03 91 192.06 91 291 C60.97 291 30.94 291 0 291 C0 194.97 0 98.94 0 0 Z " fill="#FFFFFF" transform="translate(309,227)"/>
<path d="M0 0 C30.03 0 60.06 0 91 0 C91 95.7 91 191.4 91 290 C60.97 290 30.94 290 0 290 C0 194.3 0 98.6 0 0 Z " fill="#FDFEFE" transform="translate(1883,228)"/>
<path d="M0 0 C10.64025693 7.91460207 18.63841395 18.78493241 21.59765625 31.8984375 C23.85858364 49.32733407 20.8497952 63.77038352 10.4453125 78.1484375 C1.20982888 89.68174479 -12.67613692 95.39967875 -27 97 C-40.22146556 98.06624722 -53.4408523 93.71447505 -63.9453125 85.7734375 C-74.43264906 76.77204508 -81.93687177 65.60135776 -83.22314453 51.56494141 C-84.23217421 34.46837279 -81.31239911 21.17100683 -70.12109375 7.74609375 C-51.95412585 -11.5953044 -21.87852832 -14.76330493 0 0 Z " fill="#FEFEFE" transform="translate(385,92)"/>
<path d="M0 0 C9.76060355 7.71873016 14.98535386 19.07715532 18.82421875 30.59375 C20.34271283 47.55090798 18.33471419 60.830646 7.82421875 74.59375 C7.20804688 75.41875 6.591875 76.24375 5.95703125 77.09375 C-1.3855346 85.70042059 -12.92505652 92.23613567 -24.17578125 93.59375 C-40.41346409 94.778778 -53.50250714 93.14606266 -66.7109375 82.75 C-78.21227232 72.68861042 -85.00471443 59.93874601 -86.45703125 44.62890625 C-86.92960568 29.64435883 -82.18502442 17.14122538 -72.48828125 5.84375 C-52.37602842 -15.19906976 -23.44248065 -15.15133399 0 0 Z " fill="#FDFEFE" transform="translate(1962.17578125,94.40625)"/>
</svg>
